<?xml version="1.0" encoding="UTF-8" standalone="no"?>
<!-- Created with Inkscape (http://www.inkscape.org/) -->

<svg
   xmlns:dc="http://purl.org/dc/elements/1.1/"
   xmlns:cc="http://creativecommons.org/ns#"
   xmlns:rdf="http://www.w3.org/1999/02/22-rdf-syntax-ns#"
   xmlns:svg="http://www.w3.org/2000/svg"
   xmlns="http://www.w3.org/2000/svg"
   xmlns:sodipodi="http://sodipodi.sourceforge.net/DTD/sodipodi-0.dtd"
   xmlns:inkscape="http://www.inkscape.org/namespaces/inkscape"
   width="156.15636mm"
   height="200.37282mm"
   viewBox="0 0 553.30993 709.98242"
   id="svg4320"
   version="1.1"
   inkscape:version="0.91 r13725"
   sodipodi:docname="Thiruvalluvar.svg">
  <defs
     id="defs4322" />
  <sodipodi:namedview
     id="base"
     pagecolor="#ffffff"
     bordercolor="#666666"
     borderopacity="1.0"
     inkscape:pageopacity="0.0"
     inkscape:pageshadow="2"
     inkscape:zoom="0.35"
     inkscape:cx="-58.932992"
     inkscape:cy="249.88422"
     inkscape:document-units="px"
     inkscape:current-layer="layer1"
     showgrid="false"
     inkscape:window-width="1920"
     inkscape:window-height="1017"
     inkscape:window-x="-8"
     inkscape:window-y="-8"
     inkscape:window-maximized="1"
     fit-margin-top="0"
     fit-margin-left="0"
     fit-margin-right="0"
     fit-margin-bottom="0" />
  <metadata
     id="metadata4325">
    <rdf:RDF>
      <cc:Work
         rdf:about="">
        <dc:format>image/svg+xml</dc:format>
        <dc:type
           rdf:resource="http://purl.org/dc/dcmitype/StillImage" />
        <dc:title></dc:title>
      </cc:Work>
    </rdf:RDF>
  </metadata>
  <g
     inkscape:label="Layer 1"
     inkscape:groupmode="layer"
     id="layer1"
     transform="translate(-6.7901352,-72.264005)">
    <path
       style="fill:#000000"
       d="m 37.567154,781.81753 c -5.57979,-1.25276 -7.91681,-2.50684 -9.49324,-5.09228 -0.94773,-1.55379 -1.72296,-3.43126 -1.72296,-4.17186 0,-0.74126 0.81519,0 1.81153,1.62505 0.99701,1.63438 3.20416,3.55381 4.9058,4.26444 3.62641,1.51516 11.62114,1.55179 17.94886,0.0799 l 4.4729,-1.0383 2.86582,-9.72968 c 3.06563,-10.40835 3.47189,-11.25684 4.76527,-9.95746 0.89978,0.90377 -4.30506,20.38844 -5.82955,21.82368 -2.10857,1.98537 -14.51293,3.366 -19.72443,2.19516 z m 470.004366,-3.76826 c -7.06166,-2.30571 -10.76799,-6.19119 -10.76799,-11.28747 0,-3.40928 2.3903,-2.83851 3.0603,0.72994 0.31302,1.66036 1.28539,3.67036 2.16452,4.46557 5.62908,5.09428 25.89364,5.73964 29.8677,0.95173 0.64602,-0.77523 1.44456,-3.0916 1.78023,-5.1469 l 0.61273,-3.73829 0.11322,3.3247 c 0.2664,7.81558 -4.05664,10.73868 -16.49697,11.16093 -4.44426,0.15318 -9.09298,-0.0666 -10.33108,-0.45954 z M 25.587714,768.06384 c 0,-1.23411 0.20646,-1.7396 0.45288,-1.12222 0.24642,0.61939 0.24642,1.62706 0,2.24444 -0.24642,0.61939 -0.45288,0.11322 -0.45288,-1.12222 z m 482.834956,-2.6467 c -6.78993,-2.06063 -11.88687,-6.78794 -14.31446,-13.27684 -0.98636,-2.63671 -1.79356,-5.5718 -1.79356,-6.52286 0,-1.56911 -0.81186,-1.75692 -8.75398,-2.02332 -4.81456,-0.15984 -1.68366,-0.29971 6.95843,-0.30637 8.64143,-0.006 12.99711,0.12654 9.67906,0.29971 l -6.03268,0.31302 1.90678,5.12158 c 2.60408,6.99573 3.97139,8.88119 8.2658,11.3967 5.59511,3.27742 13.07902,4.18119 17.65648,2.13189 5.60111,-2.50818 8.99907,-5.24081 10.33641,-8.31309 0.66734,-1.53248 1.22745,-2.18051 1.24476,-1.43991 0.0666,2.62806 -3.52383,7.11561 -8.20719,10.26982 -4.08195,2.7486 -5.44393,3.18684 -9.69837,3.12024 -2.72264,-0.0666 -5.98407,-0.39295 -7.24748,-0.7739 z M 28.588734,764.76445 c -7.06899,-0.88179 -6.84255,-0.61938 -6.17321,-7.14758 l 0.60606,-5.91147 -7.47458,0.31969 -7.4745797,0.31968 -0.78523,-2.69333 c -1.27207,-4.36434 0,-12.99038 2.64804,-18.27047 2.7246297,-5.38932 8.7566497,-11.25284 14.9611597,-14.54424 2.27774,-1.2088 4.13323,-2.40029 4.12324,-2.64804 0,-0.24642 -3.23412,-4.28841 -7.16422,-8.97976 -3.92944,-4.69068 -7.15357,-8.8319 -7.16356,-9.20287 0,-0.37296 -0.82651,-0.67333 -1.8142,-0.67333 -0.98769,0 -1.79622,-0.38628 -1.79622,-0.85382 0,-0.47286 12.13596,-11.6198 26.96791,-24.77742 l 26.96725,-23.92426 -4.81389,-5.52385 c -7.03902,-8.07599 -11.97279,-15.77768 -15.17162,-23.68184 -3.88348,-9.59781 -4.53883,-22.86199 -1.71363,-34.7029 2.05329,-8.60413 7.16422,-20.36913 11.73569,-27.01253 3.97006,-5.77094 13.29348,-13.20224 22.58293,-17.99948 7.82823,-4.04399 24.044136,-10.69539 24.633556,-10.10597 0.17316,0.17316 -4.216486,2.20381 -9.749656,4.51752 -20.27056,8.47426 -34.37856,19.51663 -39.98367,31.29494 -7.60112,15.97216 -10.10464,38.51979 -5.69501,51.28645 2.49152,7.21285 8.66207,16.80133 16.20925,25.18768 3.02033,3.35734 5.49188,6.45093 5.49188,6.87518 0,0.42624 -11.91551,11.33409 -26.47839,24.24461 l -26.47907,23.47405 3.00102,3.32004 c 1.65037,1.82618 5.6171,6.35036 8.81459,10.05335 l 5.8149,6.73399 86.122556,-0.17316 c 47.36767,-0.0932 159.0482,0.0932 248.17977,0.41292 l 162.05722,0.58609 -249.45185,1.09558 -249.451836,1.09558 -4.95309,2.97838 c -6.62476,3.98404 -13.42401,11.50059 -14.71606,16.26985 -1.2674097,4.67796 -1.4458997,12.05464 -0.31969,13.07563 0.46621,0.41958 3.57179,0.57277 6.90515,0.333 5.18552,-0.3663 6.05999,-0.67133 6.05999,-2.11789 0,-0.93041 0.60607,-1.69166 1.34733,-1.69166 0.74792,0 1.34666,0.79854 1.34666,1.79622 0,2.28906 -12.42434,2.31903 184.951166,-0.44623 87.1562,-1.22145 166.95037,-2.17184 177.32008,-2.1119 10.37038,0.0666 -50.43463,1.43857 -135.12194,3.06229 -84.68731,1.62373 -161.327276,2.98305 -170.311026,3.02034 l -16.3338,0.0666 -5.21416,4.8099 c -2.86715,2.64604 -6.50354,5.47256 -8.07998,6.28109 -4.77127,2.44891 -16.59886,3.71299 -24.9659,2.66869 z m 23.97155,-4.25111 c 2.77591,-0.99103 13.02774,-8.53421 12.20189,-8.97844 -0.14652,-0.0799 -8.94712,0.0733 -19.56392,0.33967 l -19.30285,0.47952 -0.49284,4.29507 c -0.27307,2.36166 -0.30637,4.48289 -0.0733,4.71333 0.99302,0.99302 24.09343,0.27306 27.23365,-0.84649 z M 533.7562,749.20921 c 0,-1.23477 0.20646,-1.73961 0.45289,-1.12222 0.24642,0.61939 0.24642,1.62705 0,2.24444 -0.24643,0.61939 -0.45289,0.11322 -0.45289,-1.12222 z M 421.16191,744.049 c 6.54284,-0.15318 17.24955,-0.15318 23.7924,0 6.54284,0.15318 1.18948,0.27972 -11.8962,0.27972 -13.08568,0 -18.43904,-0.12654 -11.8962,-0.27972 z m 122.46583,-10.86582 -4.67203,-9.56185 3.18351,3.59111 c 7.21151,8.13526 10.08266,14.02735 7.34738,15.07697 -0.79322,0.30636 -2.73529,-2.71397 -5.85886,-9.10623 z m -11.27681,-21.90693 c 1.47387,-1.60508 4.58345,-5.02169 6.90981,-7.59314 2.32636,-2.57145 4.2298,-4.33436 4.2298,-3.91811 0,1.79688 -7.27877,11.42467 -9.72102,12.85791 -3.97805,2.33502 -4.41695,1.9181 -1.41859,-1.34666 z M 263.85065,699.77366 c -2.94508,-1.0403 -6.40032,-2.63672 -7.67838,-3.54648 -2.00535,-1.42792 -3.1622,-1.55113 -8.42564,-0.89844 -11.74968,1.45722 -28.54968,-1.27274 -47.22448,-7.67306 -6.57415,-2.2531 -17.45269,-4.65605 -35.94101,-7.93812 l -26.51303,-4.70733 -16.36177,-7.48857 c -8.9984,-4.11925 -16.23456,-7.61578 -16.08004,-7.77029 0.15318,-0.15318 7.67705,2.9837 16.71674,6.97441 l 16.4357,7.25547 27.05582,4.32637 c 19.6525,3.14222 29.26697,5.10161 35.13648,7.15957 11.55054,4.05064 38.31531,8.05534 46.94742,7.02436 6.15656,-0.73527 6.46558,-0.674 12.7993,2.54348 8.6341,4.38631 14.15196,4.50153 22.11672,0.4662 l 5.54916,-2.81454 3.73829,3.12357 c 2.05663,1.71829 4.41895,3.12423 5.25013,3.12423 4.25178,0 7.81691,-5.34803 10.47361,-15.71241 1.31536,-5.12758 1.64303,-10.49892 1.7829,-29.17905 0.18648,-25.21698 1.22478,-31.88237 6.45026,-41.48418 3.2681,-6.00471 8.61346,-11.98078 9.96812,-11.14361 0.72594,0.44623 -0.37297,2.77259 -3.52184,7.43663 -6.1166,9.065 -7.65574,12.80129 -9.39868,22.81469 -1.19548,6.87252 -1.35732,11.66177 -0.85848,25.51869 0.50616,14.11466 0.35964,18.28652 -0.86781,24.17268 -3.90013,18.73608 -12.18524,25.11508 -21.5646,16.60219 -1.76625,-1.60307 -1.93608,-1.58842 -6.28443,0.54613 -6.48557,3.18018 -13.09568,3.60709 -19.70046,1.2734 z M 83.355724,693.55649 c -44.94008,-0.45288 -44.21812,-0.47286 38.979326,-1.09624 46.62241,-0.34633 85.11156,-0.41959 85.53181,-0.15984 3.67768,2.27307 -10.06002,2.4116 -124.511136,1.25875 z m 226.924866,-2.93042 c 0.4329,-1.29205 -3.8009,-1.26142 99.20957,-0.71529 57.11999,0.30636 66.51734,0.4995 46.46257,0.98702 -13.82628,0.333 -52.3434,0.65934 -85.59242,0.72861 -48.00703,0.0999 -60.37676,-0.10656 -60.07972,-1.00034 z m -44.47654,-4.03999 c -0.19981,-0.37297 0.1332,-2.69333 0.7386,-5.16288 l 1.1029,-4.48888 0.10656,5.16221 c 0.0932,4.5022 -0.81186,6.58746 -1.94806,4.48955 z m 169.04961,-3.91212 c -8.7693,-0.99035 -86.59875,-14.5822 -85.53447,-14.93652 0.44622,-0.15318 18.56358,2.52683 40.25673,5.94677 21.69314,3.42061 43.8758,6.71134 49.29509,7.31341 18.05275,2.00468 37.36226,-0.35964 63.40243,-7.75364 6.21783,-1.76625 11.71571,-3.47655 12.21654,-3.8009 1.76359,-1.14086 12.9052,-22.23127 15.9635,-30.21735 4.46224,-11.65244 5.21749,-15.57588 4.79591,-24.91661 -0.32635,-7.18354 -0.78123,-9.12428 -3.38797,-14.39439 -3.61642,-7.31074 -8.12794,-12.60416 -16.29917,-19.12369 -6.34237,-5.06098 -7.98474,-5.7836 -7.98474,-3.51518 0,0.7406 -0.35964,1.2461 -0.80054,1.12222 -0.43956,-0.11988 -3.68168,3.00768 -7.20352,6.95843 -3.52184,3.95008 -8.51488,9.3021 -11.09566,11.8922 l -4.69268,4.70999 5.38666,-0.005 c 4.71932,-0.005 6.07397,-0.43956 10.92516,-3.5185 6.07597,-3.85485 5.57514,-2.67468 6.8885,-16.22124 0.1665,-1.72829 0.3663,0.333 0.44622,4.58078 l 0.14653,7.72368 -5.61177,4.33636 c -3.08627,2.38563 -5.7423,4.42827 -5.90281,4.5395 -0.60607,0.42624 9.71769,13.56054 13.66844,17.38874 3.66303,3.54848 5.22148,6.32173 3.55447,6.32173 -0.90177,0 -21.81702,-11.12496 -21.504,-11.43798 0.15319,-0.15318 2.25443,0.57942 4.67004,1.62572 8.7966,3.81488 8.72068,3.95541 2.47221,-4.59012 l -5.8815,-8.04335 -6.14923,0 c -5.35602,0 -6.33238,0.25974 -7.57315,2.02 -1.33468,1.89412 -1.31004,2.03797 0.3996,2.30704 1.00234,0.15984 1.82219,0.75525 1.82219,1.32735 0,0.57277 -3.09892,4.15654 -6.8865,7.96676 -5.78892,5.82356 -6.70734,7.14158 -5.76495,8.27713 0.96571,1.16351 2.46689,0.333 10.84258,-6.00938 6.93246,-5.24812 10.17258,-8.32773 11.2928,-10.73535 2.06195,-4.43093 2.65803,-3.76226 0.68598,0.76924 -0.83916,1.92742 -1.41659,3.90879 -1.28406,4.4023 0.1332,0.49284 -0.0666,0.60607 -0.3996,0.25308 -0.35298,-0.35298 -5.08296,3.2581 -10.50757,8.02804 l -9.86289,8.67206 -2.56145,-3.0896 c -1.40927,-1.69965 -2.57279,-3.50519 -2.58611,-4.01335 0,-0.50617 2.59077,-3.51585 5.78693,-6.68337 3.19616,-3.16819 5.58246,-5.98406 5.3034,-6.25912 -0.27972,-0.27307 -4.00536,3.16219 -8.28045,7.63708 -8.58814,8.99042 -7.9641,8.09131 4.19118,-6.04333 4.53084,-5.26878 8.2305,-9.91483 8.22118,-10.32509 0,-0.41293 -2.02866,-2.06196 -4.48888,-3.67103 -2.46023,-1.6084 -4.4729,-3.30072 -4.4729,-3.76027 0,-0.8345 2.83852,-1.32535 13.01842,-2.2511 4.49753,-0.41292 5.68369,-0.88845 7.18287,-2.90112 1.55979,-2.09525 8.40433,-9.745 13.24286,-14.80198 0.86381,-0.9031 1.57111,-2.24777 1.57111,-2.98837 0,-0.7406 0.66601,-1.34666 1.4772,-1.34666 0.81186,0 6.36702,-4.54549 12.34508,-10.10065 12.18658,-11.32676 12.096,-10.78196 -0.45288,2.69999 l -8.62611,9.26814 12.01009,11.80762 c 11.33009,11.13895 12.11664,12.14062 13.89355,17.69577 3.67701,11.49926 2.36365,25.12574 -3.82687,39.68863 -2.03465,4.78658 -12.44366,24.36516 -15.53526,29.22101 -0.0666,0.0932 -10.42832,2.82253 -23.03847,6.05998 l -22.92792,5.88687 -14.75669,-0.11322 c -8.11662,-0.0666 -17.78702,-0.45955 -21.49068,-0.8778 z m 49.38034,-83.85015 2.10858,-2.24444 -4.86984,0 -4.8705,0 2.694,2.20781 c 1.48119,1.21413 2.72396,2.20981 2.76126,2.21181 0.0666,0.003 1.01699,-1.00567 2.1765,-2.23978 z m -302.52252,79.23273 c 0,-0.61939 3.31471,-4.55615 7.31274,-8.75398 7.21817,-7.57782 7.24215,-7.5938 3.45058,-2.24444 -2.10058,2.96306 -4.83853,6.90182 -6.0853,8.75398 -2.20648,3.27675 -4.7666,4.50553 -4.67802,2.24444 z m 11.62779,-1.93541 c 0,-1.12755 7.91548,-4.58879 8.70004,-3.8049 0.43956,0.43957 -6.66406,5.06698 -7.78295,5.06698 -0.50616,0 -0.91709,-0.56611 -0.91709,-1.26208 z m -20.65018,-0.90644 c 0,-0.69864 2.01068,-2.87115 4.46824,-4.82788 2.45756,-1.95605 5.93544,-5.32405 7.729,-7.48324 1.79355,-2.15919 3.46123,-4.1279 3.70632,-4.37432 1.04629,-1.05363 -2.69133,6.97907 -4.43427,9.53054 -1.75293,2.56545 -9.27413,8.42564 -10.81394,8.42564 -0.35964,0 -0.65268,-0.57276 -0.65268,-1.27074 z m 171.7263,-8.32973 c 0.87313,-0.22645 2.08526,-0.21313 2.69333,0.0666 0.60606,0.24642 -0.10657,0.4329 -1.58843,0.41292 -1.4812,0 -1.9787,-0.21978 -1.1049,-0.44622 z m -5.85286,-0.87047 c 0.61938,-0.24643 1.62705,-0.24643 2.24444,0 0.61938,0.24642 0.11322,0.45288 -1.12222,0.45288 -1.23478,0 -1.73961,-0.20646 -1.12222,-0.45288 z m -4.4336,-0.91643 c 0.64602,-0.25974 1.42259,-0.22644 1.72096,0.0733 0.2997,0.29971 -0.23311,0.51283 -1.17817,0.47287 -1.04629,-0.0666 -1.25875,-0.25975 -0.54612,-0.53947 z m -5.38666,-0.89777 c 0.64603,-0.25975 1.42259,-0.22645 1.72096,0.0733 0.2997,0.2997 -0.2331,0.51282 -1.17883,0.47286 -1.04563,-0.0666 -1.25809,-0.25974 -0.53946,-0.54612 z m 64.49202,-2.56812 c -6.12326,-1.87348 -25.26294,-4.75662 -63.65019,-9.58649 -5.47257,-0.68865 -7.8562,-1.35333 -7.8562,-2.1905 0,-1.74493 1.1342,-1.6397 35.45016,3.28475 25.03849,3.5931 32.24534,4.93443 36.17478,6.73398 2.69865,1.23544 5.61176,2.24644 6.47357,2.24644 0.86115,0 4.07263,-3.03033 7.13626,-6.73399 3.06362,-3.70366 5.77893,-6.73332 6.03468,-6.73332 0.73726,0 -10.94581,14.68144 -11.87422,14.92187 -0.45955,0.11988 -4.00936,-0.75525 -7.88884,-1.94274 z m -292.3706,-3.55248 c -1.234776,-0.7053 -1.840836,-1.28273 -1.346666,-1.28273 0.492846,0 1.907446,0.57943 3.142216,1.28273 1.23411,0.70597 1.84017,1.28339 1.34666,1.28339 -0.49284,0 -1.9081,-0.57942 -3.14221,-1.28339 z M 89.185944,647.37897 c -6.16921,-3.17018 -11.34741,-6.40231 -11.50725,-7.18287 -0.41292,-2.01866 0.2997,-1.81487 6.18786,1.76025 8.12328,4.93511 18.192616,9.30744 23.444076,10.18124 l 4.77592,0.79454 -5.84153,0.10656 c -5.50921,0.0999 -6.480236,-0.21978 -17.059076,-5.65772 z m 194.496366,-8.03536 c -0.81586,-17.26553 -0.0666,-19.70778 10.02139,-32.21537 2.686,-3.33269 5.24147,-6.05999 5.6797,-6.05999 1.92142,0 0.45954,3.18018 -3.84286,8.34439 -7.63509,9.16891 -8.98375,13.09901 -9.88885,28.80409 -0.42625,7.40865 -0.9071,13.60184 -1.06761,13.76168 -0.15984,0.15984 -0.5661,-5.52518 -0.90177,-12.6348 z m 114.77146,5.26878 c -2.60941,-2.71598 -5.45325,-4.93777 -6.31839,-4.93777 -0.86581,0 -1.33535,-0.23976 -1.04363,-0.53281 1.12488,-1.12488 4.4609,0.83784 8.64142,5.08496 2.39496,2.43358 4.75262,4.42428 5.23947,4.42428 1.31003,0 6.68004,-3.81822 7.71634,-5.48589 0.69532,-1.11889 -0.14652,-2.95441 -3.71564,-8.11995 l -4.61409,-6.67404 -21.67849,-2.38564 -21.6785,-2.3863 -8.18987,-5.1682 c -16.91255,-10.67341 -20.31052,-12.98512 -20.31052,-13.81696 0,-0.47286 0.57277,-0.85449 1.27208,-0.85449 0.6993,0 1.4066,-0.31968 1.5711,-0.71462 0.69465,-1.66035 79.6956,-49.53885 84.24575,-51.05734 6.91581,-2.30838 21.78373,-2.32036 25.58795,0 1.4812,0.89578 1.88546,1.35266 0.89778,1.01499 -6.42363,-2.19249 -9.0457,-2.43625 -15.47398,-1.43657 -10.18656,1.58309 -16.51628,4.77126 -43.33368,21.82367 -13.57919,8.63477 -30.23733,19.10638 -37.01794,23.26959 -6.7806,4.1632 -12.21321,7.93612 -12.07335,8.38501 0.13986,0.44622 5.50587,4.1692 11.9235,8.26846 l 11.66842,7.45327 19.70778,2.30638 c 10.83925,1.26874 20.79537,2.52417 22.12339,2.78924 1.86748,0.37296 3.55447,2.31503 7.43063,8.55151 2.75793,4.4376 4.76194,8.47826 4.45291,8.97776 -1.26741,2.0513 -7.98741,6.17787 -10.06002,6.17787 -1.52449,0 -3.72164,-1.55645 -6.97042,-4.93843 z m -212.39394,-9.02572 c 10.16192,-19.79169 18.23857,-28.21467 39.63734,-41.33898 6.36302,-3.9028 11.58384,-7.33273 11.60249,-7.62311 0,-0.28638 -3.90613,-1.74826 -8.72068,-3.24078 l -8.75398,-2.71331 -8.33707,8.62744 -8.33772,8.62811 6.31706,-8.69471 c 3.47456,-4.78126 6.31773,-8.9065 6.31773,-9.16624 0,-0.25974 -2.52549,-1.24743 -5.61176,-2.19515 l -5.6111,-1.72229 -15.26286,3.91678 c -8.395,2.15453 -15.58187,3.81688 -15.97149,3.695 -0.39294,-0.11988 5.26678,-2.20049 12.56953,-4.61875 l 13.2775,-4.39631 -4.93777,-1.59775 c -2.71597,-0.87913 -9.07899,-2.85183 -14.14064,-4.38431 -6.18653,-1.87281 -9.20287,-3.21481 -9.20287,-4.09461 0,-0.71928 0.23976,-1.30803 0.53281,-1.30803 0.29304,0 17.16031,5.03234 37.48414,11.18357 36.9207,11.17358 36.97465,11.1869 63.88662,15.4873 14.81397,2.36698 26.12674,4.41096 25.13906,4.54149 -0.98769,0.1332 -14.118,-1.34 -29.17905,-3.26742 l -27.3835,-3.50519 -19.30352,13.6065 -19.30285,13.60717 -10.43298,15.05706 c -5.73764,8.28178 -10.74734,15.34544 -11.13162,15.69776 -0.38629,0.35298 1.80154,-4.22914 4.85785,-10.18124 z m 259.11892,0.0733 c -1.97537,-1.21679 -3.33935,-2.22446 -3.03232,-2.23977 0.88845,-0.0666 8.86786,3.60309 8.86786,4.05397 0,1.00567 -2.53881,0.21313 -5.83554,-1.8142 z m -13.91619,-10.69006 c 0,-0.68132 6.10128,-7.65107 13.55921,-15.4873 14.03008,-14.74337 23.58127,-24.33718 19.54794,-19.63518 -20.37245,23.7471 -31.56202,36.36192 -32.254,36.36192 -0.4662,0 -0.85315,-0.55944 -0.85315,-1.23944 z m 10.77397,-4.53683 c 0,-0.7073 4.06797,-5.95942 9.04037,-11.67175 8.70936,-10.00408 12.41035,-13.53724 7.82091,-7.46659 -1.2128,1.60507 -5.11892,6.85719 -8.68006,11.67175 -6.23714,8.43363 -8.18122,10.20787 -8.18122,7.46659 z m -263.9075,-18.02878 -14.76069,-10.24783 -3.87882,3.17818 c -2.9231,2.39562 -7.45527,4.37566 -18.39441,8.03736 -7.98408,2.67201 -14.64414,4.7313 -14.79999,4.57479 -0.15318,-0.15318 5.97408,-2.84584 13.62182,-5.97807 7.64708,-3.13156 15.18693,-6.76528 16.75405,-8.07332 l 2.84984,-2.37964 -10.69872,-1.86415 c -13.38139,-2.33102 -28.58498,-8.38102 -33.75718,-13.43134 -3.0583,-2.98637 -3.41061,-3.78691 -3.27075,-7.4293 l 0.15984,-4.08261 0.33966,3.78891 c 0.27972,3.12823 0.99168,4.34502 4.06663,6.97707 2.04864,1.7536 5.35935,3.6304 7.3567,4.17053 1.99802,0.53947 6.66206,2.13255 10.36572,3.53916 10.79529,4.1006 24.30988,6.70934 22.89462,4.41895 -1.20614,-1.95207 0.61938,-2.78724 2.87182,-1.31203 2.21979,1.45389 2.3137,1.41393 5.67703,-2.41428 2.08793,-2.37697 4.034,-5.92212 4.99771,-9.1043 1.62106,-5.35402 2.43425,-6.51886 3.91278,-5.60444 0.51283,0.31303 0.32635,2.00202 -0.45954,4.23314 -0.71929,2.03931 -1.17017,3.84618 -1.00167,4.01468 0.1665,0.1665 2.62206,-0.11988 5.45259,-0.64603 7.5898,-1.4026 7.7563,-0.666 0.41292,1.83552 -5.02635,1.71097 -7.29609,3.08827 -10.13195,6.1479 -2.00934,2.16851 -3.74561,4.20183 -3.85817,4.51818 -0.11322,0.31968 2.51417,2.31903 5.83621,4.44959 l 6.04001,3.87482 -5.38732,-5.06231 c -2.9624,-2.78457 -4.92712,-4.8352 -4.36567,-4.55748 2.52216,1.24743 27.70917,22.33451 27.70917,23.19898 0,2.29439 -2.60941,0.91177 -16.5569,-8.77129 z m 69.97724,8.11395 c 0,-0.28638 1.19149,-2.88114 2.64737,-5.76561 3.64705,-7.22417 13.51393,-15.71175 13.51393,-11.62447 0,0.57277 -1.65636,2.45357 -3.68035,4.18585 -2.02399,1.73228 -5.65972,5.52985 -8.07998,8.43763 -2.42027,2.90845 -4.40097,5.05365 -4.40097,4.7666 z M 51.705134,607.13028 c -3.92411,-4.91779 -4.86318,-12.6015 -2.33036,-19.07841 0.77257,-1.97537 1.70631,-6.32705 2.07528,-9.67107 0.7013,-6.36169 1.13753,-7.47192 2.58144,-6.57947 1.38462,0.85582 0.19314,11.30345 -1.85683,16.25054 -2.33169,5.63242 -2.50951,13.31146 -0.3996,17.28286 1.5791,2.97238 1.5458,3.82087 -0.0666,1.79555 z M 266.96156,602.6414 c 0.005,-1.38529 3.63173,-9.21619 4.38499,-9.46727 1.75159,-0.58609 1.08092,2.42759 -1.36265,6.11992 -2.04997,3.09693 -3.025,4.17719 -3.02234,3.34735 z m 42.02831,-6.67338 c 0.64602,-0.25974 1.42259,-0.22644 1.72096,0.0733 0.2997,0.2997 -0.23311,0.51283 -1.17817,0.47286 -1.04629,-0.0666 -1.25875,-0.25308 -0.54612,-0.53946 z m -6.77262,-0.9071 c 0.8738,-0.22644 2.08593,-0.21312 2.69333,0.0666 0.60607,0.24642 -0.10656,0.4329 -1.58776,0.41292 -1.48186,0 -1.9787,-0.21978 -1.10557,-0.44622 z m 21.3062,-1.51183 c 0,-0.80454 6.19052,-3.33936 17.73241,-7.2608 9.75232,-3.31404 21.97419,-8.08731 27.15905,-10.60681 l 9.42731,-4.58212 23.31687,-22.94723 c 12.82394,-12.62148 22.6815,-22.14003 21.90493,-21.15235 -26.1707,33.28031 -36.54241,43.08792 -55.098,52.10297 -7.93479,3.85485 -40.93139,15.68244 -43.75126,15.68244 -0.37962,0 -0.69131,-0.55278 -0.69131,-1.2361 z m -177.31342,-8.62877 c -0.2997,-0.48619 1.35932,-2.92577 3.69034,-5.41796 3.81488,-4.07862 4.34702,-5.17886 5.32072,-11.00975 l 1.0816,-6.47757 0.11322,7.66506 0.11322,7.66506 -4.29574,4.23114 c -4.50819,4.44026 -5.13091,4.78658 -6.02269,3.34402 z m 306.38603,-6.04334 c -1.84617,-3.21415 -3.18684,-6.1186 -2.97971,-6.45427 0.72661,-1.1755 18.73674,1.18283 19.17564,2.51085 0.33966,1.0343 -0.99102,1.13753 -7.79893,0.60606 l -8.21052,-0.64602 1.84217,4.67469 c 1.01366,2.57078 1.72696,4.78126 1.5851,4.9118 -0.13986,0.1332 -1.76758,-2.39163 -3.61375,-5.60578 z m -292.26137,-0.88446 c 0.82185,-9.06101 4.00535,-13.05638 8.85787,-11.11564 l 2.14987,0.85982 -2.35899,0.0666 c -3.27342,0.0799 -4.28442,1.64969 -5.5798,8.6674 -1.48985,8.07332 -3.76493,9.20819 -3.06895,1.53114 z m -21.76241,2.8565 c 0,-0.75192 1.71696,-3.22214 3.81554,-5.49055 3.12624,-3.37865 3.9987,-5.11826 4.82855,-9.63111 l 1.01233,-5.50787 0.10656,7.11161 0.10656,7.11228 -4.05598,3.88614 c -4.27975,4.10126 -5.81956,4.76794 -5.81956,2.5195 z m 114.57166,-0.51948 c -9.19754,-1.34267 -17.16697,-4.04599 -46.60376,-15.80965 -25.42345,-10.15925 -30.67357,-12.71338 -29.18838,-14.19858 0.21978,-0.21978 13.49928,4.85918 29.51472,11.28147 40.32999,16.17196 43.57277,17.17629 57.40105,17.77637 8.99774,0.39294 10.42166,0.61938 7.18221,1.14752 -5.17953,0.8465 -11.6298,0.77723 -18.30584,-0.1998 z M 476.6462,575.2599 c 7.15024,-8.33173 18.79668,-20.24524 24.19732,-24.75144 2.46955,-2.05996 -2.95906,4.02934 -12.06336,13.53324 -9.10364,9.50323 -16.72807,17.27819 -16.94386,17.27819 -0.21312,0 1.9494,-2.72663 4.8099,-6.05999 z m -200.03354,3.66969 c 0.61938,-0.24642 1.62705,-0.24642 2.24444,0 0.61938,0.24642 0.11322,0.45289 -1.12222,0.45289 -1.23478,0 -1.73961,-0.20647 -1.12222,-0.45289 z m -147.91659,-6.46958 c 0,-0.42624 1.8182,-2.59742 4.04,-4.81988 3.91078,-3.91079 4.04332,-4.22381 4.13256,-9.76964 l 0.0932,-5.72965 1.21546,5.38666 c 1.69299,7.50455 1.75426,7.25146 -2.82852,11.70571 -3.82088,3.71298 -6.6514,5.08629 -6.6514,3.2268 z m 188.54295,-0.4662 c 0,-0.77923 3.97006,-2.68734 10.54953,-5.07031 9.65109,-3.49653 10.98976,-4.2671 15.7244,-9.05634 4.32304,-4.37299 4.93177,-4.75795 3.695,-2.33701 -4.20183,8.22716 -8.0267,11.07567 -20.22393,15.06171 -9.28213,3.03299 -9.745,3.0996 -9.745,1.40195 z m 33.21904,0.0999 c 0,-0.63271 3.08893,-4.5435 6.86386,-8.69538 7.97209,-8.76664 8.05534,-8.54952 0.7679,1.99935 -4.97506,7.20152 -7.63176,9.53255 -7.63176,6.69603 z m 113.0585,-5.59179 c 9.01039,-10.17058 11.87688,-13.01309 13.12165,-13.01309 2.44091,0 1.33001,1.48719 -6.09596,8.1639 -9.95945,8.95445 -11.77165,10.20521 -7.02569,4.84919 z m -343.23214,-4.86384 c -4.58079,-4.49221 -8.57549,-7.92148 -8.87653,-7.62044 -0.2997,0.2997 -1.95006,0.0866 -3.66369,-0.47953 -2.24045,-0.73927 -3.27809,-1.70964 -3.69367,-3.45657 -0.31969,-1.33534 -0.79255,-3.23612 -1.05362,-4.22314 -0.31969,-1.22013 0.10656,-0.94706 1.34466,0.85115 1.00101,1.45656 2.99037,3.27409 4.42228,4.04066 3.53982,1.89479 21.72778,16.2692 21.72778,17.1723 0,2.65403 -2.93709,0.84516 -10.20721,-6.28376 z m -32.628956,4.19584 c 3.06496,-7.61645 5.58979,-12.34509 6.59146,-12.34509 1.9141,0 1.50917,1.24543 -2.46222,7.57981 -3.38132,5.39332 -5.2488,7.54852 -4.12924,4.76528 z m 12.554206,-5.16221 c 1.09425,-3.75162 2.3197,-6.28511 3.03899,-6.28511 0.666,0 1.20613,0.41293 1.20613,0.92375 0,1.0423 -5.231466,11.64579 -5.745626,11.64579 -0.18648,0 0.49284,-2.82786 1.500506,-6.28443 z m 191.91826,5.16221 c 0,-0.61939 9.40866,-6.45094 20.87462,-12.96315 26.89399,-15.27684 29.75049,-17.59321 41.32367,-33.51142 0.89445,-1.23011 0.71995,-0.61938 -0.38628,1.35932 -9.32741,16.64882 -17.49797,23.5886 -45.40962,38.57307 -14.46631,7.7663 -16.45034,8.55751 -16.39973,6.54218 z M 159.6527,552.98862 c -4.48822,-5.52319 -6.66339,-8.88918 -6.10462,-9.44796 0.55945,-0.55945 1.36931,-0.29971 2.27508,0.72461 1.74427,1.97404 11.61847,17.30417 11.14561,17.30417 -0.18648,0 -3.48121,-3.86151 -7.31607,-8.58082 z m -33.68059,0 c -6.75397,-6.88717 -7.68571,-7.30542 -10.53155,-4.72465 -1.47787,1.34 -0.9757,0.31302 1.38995,-2.83652 2.03665,-2.71397 3.41861,-5.19018 3.07096,-5.50254 -0.34633,-0.31302 -3.0976,-0.83317 -6.10994,-1.15619 -4.63807,-0.4995 -5.66238,-0.33966 -6.69003,1.01367 -1.03564,1.36597 -1.02898,1.4359 0.0666,0.47952 2.23112,-1.99003 2.83985,-1.19615 1.20547,1.57111 -1.64637,2.78723 -2.53282,3.27808 -3.39663,1.88013 -0.27306,-0.44622 -1.31003,-0.5994 -2.29772,-0.34632 -2.57211,0.67267 -2.21647,-0.99235 0.99235,-4.64672 2.35433,-2.68201 3.36266,-3.17152 6.50887,-3.15954 2.04731,0 5.99073,0.54613 8.76264,1.20015 4.52218,1.06427 5.00637,1.0403 4.70867,-0.23977 -0.17983,-0.78388 -5.16555,-23.51999 -11.07435,-50.5252 l -10.74268,-49.10062 10.70339,-23.64121 c 9.91283,-21.89361 10.96978,-24.76743 14.29981,-38.88609 6.34437,-26.89665 17.83297,-51.37236 33.81445,-72.03653 l 7.12027,-9.20753 22.89329,-7.43196 22.89262,-7.43196 6.42362,-13.88689 c 11.79164,-25.49204 11.75834,-25.34086 14.66013,-67.30722 2.19049,-31.67324 2.81254,-37.39823 4.82321,-44.40195 1.27007,-4.42161 2.22313,-8.10862 2.11857,-8.19254 -0.10657,-0.0866 -4.54017,-2.46422 -9.85689,-5.29008 -5.31673,-2.82587 -10.02073,-5.80558 -10.45363,-6.6221 -1.58709,-2.9917 -2.98904,-15.48863 -2.61541,-23.30554 0.32635,-6.77728 0.83717,-8.95512 3.28275,-13.921527 3.67901,-7.47325 9.80427,-13.061699 19.37744,-17.678459 14.11067,-6.805905 20.68548,-7.050325 37.31032,-1.38729 21.76573,7.414649 25.9962,10.636779 41.73259,31.789126 6.11394,8.21785 12.34109,15.84761 13.83894,16.95451 2.40628,1.77891 6.97708,9.83158 6.08596,10.7227 -0.18648,0.18648 -0.84982,-0.89511 -1.47387,-2.40228 -1.04963,-2.53416 -1.3813,-2.69666 -4.38565,-2.15453 -7.42263,1.33867 -18.79735,5.1349 -22.83934,7.62243 l -4.32704,2.66203 -11.38537,-2.353 c -12.44166,-2.57145 -17.68912,-2.47022 -23.41144,0.45288 -3.63639,1.85616 -5.49721,3.74163 -7.57782,7.67905 -0.78255,1.4812 -1.43924,2.26775 -1.45855,1.74694 0,-0.51949 1.18349,-2.86982 2.67401,-5.22082 3.44192,-5.42729 7.735,-7.35604 17.93954,-8.06134 5.76628,-0.3996 9.4726,-0.11322 15.16296,1.17017 l 7.53119,1.69632 3.36266,-2.22513 c 4.16787,-2.75793 14.27051,-6.37967 19.97685,-7.16156 2.357,-0.31968 4.46091,-0.8718 4.6767,-1.22012 0.57276,-0.93174 -6.41364,-7.50122 -8.27047,-7.77429 -0.87379,-0.12654 -3.71364,-0.8405 -6.31107,-1.58176 -3.50452,-1.00101 -5.93544,-1.14353 -9.42731,-0.55279 -12.14995,2.05596 -11.46729,2.05929 -6.94911,-0.0666 6.29376,-2.92376 11.73236,-3.66303 16.96317,-2.30637 5.05765,1.31203 5.06498,1.49518 -0.21312,-5.5525 -2.09059,-2.78989 -3.81688,-4.35434 -4.17186,-3.78091 -0.4329,0.6993 -1.32269,0.70663 -3.11757,0 -8.94713,-3.40196 -15.80099,-2.91111 -26.43444,1.89345 -3.1642,1.42992 -5.88883,2.46423 -6.054,2.29906 -0.1665,-0.16651 2.6254,-1.95606 6.20185,-3.97872 10.2092,-5.77427 15.96616,-6.798587 23.61524,-4.20183 2.2864,0.77656 4.36433,1.20347 4.61808,0.94972 0.25309,-0.25308 -3.11757,-4.072627 -7.4919,-8.485577 -9.2042,-9.28479 -13.59118,-11.78431 -29.5014,-16.806659 -8.09263,-2.55413 -12.33842,-3.40795 -17.05907,-3.42926 -14.46765,-0.0666 -30.79012,9.935469 -37.03126,22.690819 -2.93043,5.989387 -3.78425,17.681787 -1.98736,27.205667 1.336,7.08231 1.21879,6.96776 14.104,13.79099 4.89448,2.59209 8.3031,4.95641 8.29977,5.75695 -0.003,0.74726 -1.20347,5.60044 -2.66735,10.78597 -2.49686,8.84122 -2.66336,10.43031 -2.68534,25.58794 -0.0666,35.5827 -5.96408,66.85101 -16.34045,86.41493 -2.94642,5.55583 -5.02635,10.12263 -4.62342,10.14927 0.40627,0 -10.37637,3.86017 -23.95623,8.51888 l -24.69017,8.47093 -4.69468,4.9704 c -6.0087,6.36036 -10.6854,13.27616 -16.80865,24.85468 -4.04266,7.64375 -6.44627,14.39838 -13.83494,38.87876 -8.18055,27.10244 -9.81493,31.54603 -19.17431,52.12695 l -10.23185,22.49834 11.02106,50.1629 11.02107,50.1629 -3.47988,2.97838 c -4.55815,3.90213 -4.0693,5.5405 3.20082,10.72869 3.14688,2.2451 5.72166,4.65338 5.72166,5.35069 0,2.17118 -1.24343,1.43524 -6.31507,-3.7363 z m 318.68915,-10.71004 c -9.03636,-10.72603 -11.74301,-14.82729 -23.47804,-35.58137 -7.29542,-12.90187 -13.26417,-24.04548 -13.26417,-24.76277 0,-3.62573 3.39863,1.50917 15.71175,23.73979 9.95678,17.97616 15.86958,27.49605 22.68216,36.52043 5.0683,6.714 9.06767,12.20656 8.88851,12.20656 -0.17982,0 -4.92245,-5.45526 -10.54021,-12.12264 z m -337.47917,4.71598 c 0,-0.61938 1.67367,-2.25709 3.67701,-3.64371 3.6697,-2.54015 3.73164,-2.22047 0.43957,2.29705 -1.85949,2.5548 -4.17852,3.31271 -4.11925,1.34666 z m 172.04863,-1.27207 c -0.32634,-0.32634 -0.5994,-0.96238 -0.5994,-1.4066 0,-0.44623 7.97942,-4.68735 17.73174,-9.42798 28.65024,-13.92752 34.77084,-19.51531 60.98483,-55.67943 10.11197,-13.94949 18.56092,-25.3635 18.77604,-25.3635 1.09691,0 -35.56405,53.20854 -39.49016,57.31447 -9.8349,10.28513 -18.20393,16.03476 -37.53343,25.78575 -20.06009,10.11996 -18.99781,9.65043 -19.87095,8.77729 z m 266.42501,-10.4836 10.69472,-11.47461 -6.1812,-6.22916 c -3.39996,-3.42593 -6.42962,-6.22915 -6.73199,-6.22915 -0.2997,0 -7.99007,6.96109 -17.08305,15.46932 -9.09231,8.50823 -14.94051,13.65978 -12.99577,11.44731 7.396,-8.41099 28.95794,-30.50773 29.7698,-30.50773 0.4662,0 4.47622,3.65237 8.91049,8.11595 l 8.06134,8.11661 -8.97843,8.49291 c -14.7114,13.91619 -16.84795,15.00977 -5.46591,2.79855 z m -405.66686,6.74598 c -5.92346,-2.31371 -8.66141,-4.64206 -5.45858,-4.64206 1.20081,0 11.46262,5.41063 12.94515,6.82522 0.86981,0.83051 -1.65968,0.0932 -7.48657,-2.18316 z M 475.7078,514.22241 c -5.34936,-14.19591 -9.92083,-26.35718 -10.15793,-27.02452 -0.27972,-0.79055 0.1332,-1.10357 1.19415,-0.89778 1.26741,0.24643 3.56846,6.14124 10.43964,26.74214 4.84786,14.53491 8.68739,26.55432 8.53221,26.7095 -0.15319,0.15318 -4.65872,-11.33342 -10.00807,-25.52934 z m 58.97415,13.73171 c 8.31642,-8.35238 11.50192,-10.50691 11.50192,-7.77828 0,0.37962 -2.71863,2.87714 -6.042,5.55848 -14.24387,11.49193 -14.99646,11.7983 -5.45992,2.2198 z m -316.20362,-0.15318 c -13.57986,-0.66867 -25.26293,-1.43458 -25.96291,-1.70098 -0.88245,-0.33966 -0.98568,-0.77257 -0.333,-1.42126 0.64603,-0.64602 9.70437,-0.50616 29.55401,0.45955 l 28.61761,1.39528 22.80937,-6.27644 c 12.54489,-3.45257 22.93724,-6.14857 23.09442,-5.99205 0.15318,0.15318 -9.97144,3.59576 -22.50634,7.64241 -15.68377,5.06298 -24.00485,7.31808 -26.68485,7.23349 -2.14255,-0.0666 -15.00512,-0.67066 -28.58498,-1.34 z m -68.04515,-48.8149 c -1.13022,-23.4554 -2.28574,-44.89813 -2.56679,-47.65073 l -0.51283,-5.00437 9.15958,-10.70737 c 16.82731,-19.67182 19.58391,-24.53499 30.73285,-54.21422 4.90713,-13.06503 9.31009,-24.47904 9.78362,-25.3635 1.40328,-2.62206 2.49952,-1.84483 2.48154,1.75759 0,1.8515 0.53947,11.54521 1.21879,21.54063 1.2108,17.803 1.29072,18.25056 3.90346,21.96821 6.94378,9.87953 19.37411,14.77267 38.53444,15.16828 l 6.28443,0.12654 -4.93777,0.75592 c -6.62409,1.01366 -21.04512,-0.47953 -27.33022,-2.83253 -10.56085,-3.95141 -15.95217,-10.56019 -19.4134,-23.79838 -1.53515,-5.87151 -1.76825,-8.69405 -1.32868,-16.09803 0.34632,-5.87418 0.2331,-8.49957 -0.32635,-7.59447 -0.47286,0.76125 -3.94475,9.64976 -7.71501,19.7524 -7.88018,21.11506 -8.80127,22.85933 -17.51596,33.18242 -11.56519,13.69907 -17.08571,20.79337 -18.77004,24.11674 -1.59309,3.14488 -1.60774,4.92911 -0.39294,47.70933 0.69264,24.44308 1.14886,45.65404 1.01432,47.13523 -0.1332,1.48187 -1.1695,-16.49696 -2.29971,-39.95302 z m 255.0323,40.40191 c 0.19315,-2.09658 0.56611,-2.25709 5.59579,-2.43891 5.68835,-0.20646 4.56746,1.10224 -1.45056,1.69232 -1.67101,0.1665 -3.3347,0.90377 -3.69634,1.64503 -0.4329,0.88712 -0.58608,0.57943 -0.44622,-0.89844 z m -249.42254,-0.0666 c -0.32634,-0.52614 -0.45288,-1.07626 -0.27972,-1.22145 0.17316,-0.14652 11.62713,-8.16923 25.45341,-17.83031 13.82629,-9.66108 26.18536,-18.70678 27.46476,-20.10139 1.27939,-1.39529 18.20926,-22.73678 37.62267,-47.42695 19.4134,-24.69017 35.87041,-45.49753 36.57172,-46.23812 1.17416,-1.24077 -21.95223,35.93967 -30.71487,49.38034 -10.24916,15.71973 -36.58836,43.86115 -54.47062,58.19559 -8.23849,6.60478 -38.5704,26.20001 -40.55443,26.20001 -0.27972,0 -0.7699,-0.43291 -1.09491,-0.95772 z m 235.78607,-5.85086 c 0.0666,-1.04629 0.25309,-1.25875 0.54613,-0.54612 0.25974,0.64602 0.22644,1.42258 -0.0733,1.72095 -0.2997,0.29971 -0.51283,-0.2331 -0.47287,-1.17816 z m 14.43701,0.0733 c -1.90677,-24.88731 -2.97438,-41.90975 -2.64937,-42.23476 0.22644,-0.22645 4.41895,1.22012 9.31543,3.21547 14.44766,5.8875 24.89596,8.18588 39.65399,8.72335 7.03635,0.25974 12.79397,0.18648 12.79397,-0.15984 0,-0.34633 -1.7769,-4.74529 -3.94742,-9.77564 -2.17117,-5.02967 -10.19322,-23.69049 -17.82631,-41.46686 l -13.87823,-32.32193 1.61906,-19.30351 c 2.51883,-30.02355 2.24511,-36.95934 -2.03731,-51.62479 -5.75829,-19.7211 -16.65614,-32.4538 -36.20475,-42.30069 -8.79594,-4.43028 -7.83023,-4.4023 4.28975,0.12654 4.33503,1.61906 10.03604,4.57013 12.66876,6.55816 8.08997,6.10794 16.86993,19.46002 21.35481,32.47578 4.5355,13.16294 5.6817,37.78584 2.8625,61.50098 l -1.49452,12.56953 10.33774,24.24128 c 16.19993,37.98831 24.94925,59.22058 24.94925,60.54726 0,0.99901 -2.63405,1.12222 -14.58953,0.68333 -12.4976,-0.45955 -15.94817,-0.92242 -24.06212,-3.2328 -5.21017,-1.48319 -12.84326,-4.13922 -16.96317,-5.90214 -4.11925,-1.76358 -7.58181,-3.0956 -7.6937,-2.96106 -0.11322,0.1332 0.4995,4.89181 1.35931,10.57084 1.20614,7.96677 1.4166,12.78465 0.92109,21.0984 -0.35298,5.92612 -0.7033,9.96612 -0.77923,8.97843 z m -219.21184,-3.07428 c 0,-0.45289 7.77761,-5.75629 17.28352,-11.77765 9.5059,-6.02136 20.71478,-13.82961 24.90928,-17.35145 27.35553,-22.96722 26.72815,-22.55895 10.77931,-7.01038 -13.95949,13.6085 -15.83762,15.09236 -32.54105,25.70583 -16.55691,10.52023 -20.43106,12.49827 -20.43106,10.43365 z m 206.08021,-2.31237 c 0.23976,-1.97538 0.68865,-7.83956 1.001,-13.03108 0.55945,-9.32075 0.51283,-9.62378 -3.64571,-24.14937 -2.8565,-9.9741 -3.91878,-15.00378 -3.2994,-15.62317 1.05695,-1.05628 3.11891,3.34269 6.93978,14.80665 2.18983,6.56948 2.47555,8.71602 2.37165,17.79567 -0.0866,7.31608 -0.65268,12.28715 -1.96005,17.05841 -1.09625,4.01002 -1.66568,5.28143 -1.40727,3.14289 z m -106.2093,-0.63937 c 0.1998,-0.59941 4.17186,-2.66935 8.82858,-4.60543 10.45429,-4.34636 14.83461,-7.30675 22.67217,-15.3248 12.31312,-12.59483 17.35811,-21.54329 43.70397,-77.51176 6.09928,-12.95781 11.20755,-23.44208 11.35141,-23.29822 0.32634,0.32634 -29.05051,67.61225 -32.21404,73.79279 -7.12227,13.91286 -20.44439,30.44446 -30.48309,37.82713 -4.28042,3.14888 -19.99483,10.20655 -22.72346,10.20655 -0.82318,0 -1.33467,-0.48619 -1.13554,-1.08626 z m -132.59578,-6.02336 c -0.82718,-1.338 2.97638,-5.9421 13.41136,-16.23389 13.20956,-13.02908 16.58488,-18.11003 21.10306,-31.76782 l 3.82621,-11.56652 -2.92443,-21.01249 c -1.60841,-11.5572 -2.74461,-21.19231 -2.5255,-21.41142 0.51949,-0.51949 7.95744,41.42823 7.93346,44.72696 0,1.38263 -0.67866,3.7909 -1.48586,5.35202 -0.80719,1.56112 -2.59409,6.16921 -3.97006,10.24117 -2.71264,8.02338 -9.24416,17.50863 -17.7717,25.80773 -3.54248,3.44791 -4.35368,4.7413 -3.71831,5.92945 1.24676,2.32836 4.49554,10.75933 4.14655,10.75933 -0.1665,0 -1.81753,-2.27308 -3.66236,-5.05099 l -3.35334,-5.05099 -5.19485,5.14023 c -3.24078,3.20749 -5.42728,4.76328 -5.81423,4.13723 z m 61.88127,-0.11322 c -0.9677,-1.56578 0.28638,-2.41227 21.57793,-14.60817 18.93588,-10.84524 20.45104,-11.92217 36.36192,-25.85102 l 16.60286,-14.53358 -15.26352,15.42336 -15.26286,15.42337 -19.75173,11.35673 c -10.86389,6.24647 -20.62421,11.91152 -21.68915,12.58951 -1.42859,0.9091 -2.10458,0.96105 -2.57545,0.1998 z m 60.62652,0.42625 c 0,-0.27973 7.41598,-10.88587 16.48098,-23.56796 9.62179,-13.46264 19.1843,-28.01021 22.97721,-34.95598 3.57312,-6.54284 6.68869,-11.8962 6.92379,-11.8962 0.23311,0 -1.58109,3.73763 -4.03599,8.30509 -2.4549,4.56747 -8.54486,15.90955 -13.53258,25.20367 -7.02503,13.08834 -10.94114,19.20095 -17.3701,27.1111 -4.67736,5.75496 -8.98708,10.23384 -9.8722,10.26115 -0.86448,0 -1.57111,-0.17982 -1.57111,-0.45954 z m -95.54654,-15.01977 c -0.72195,-6.83522 -0.37296,-8.99774 1.17417,-7.30675 0.41958,0.45954 0.4995,3.86816 0.1665,7.57182 l -0.5994,6.73332 -0.73927,-6.99839 z m 10.32043,-8.77862 c -4.90247,-5.6817 -5.97807,-8.01472 -3.69567,-8.01472 0.41293,0 2.80722,3.23213 5.31539,7.18221 2.50818,3.95075 4.4023,7.18287 4.20983,7.18287 -0.19314,0 -2.81588,-2.85783 -5.82955,-6.35036 z m 9.89884,-13.54856 c -4.98771,-4.03134 -9.06833,-7.64375 -9.06833,-8.02737 0,-2.67002 3.03565,-0.74193 10.59882,6.73199 4.78725,4.73064 8.44162,8.60612 8.12061,8.61278 -0.31969,0.006 -4.66404,-3.28673 -9.6511,-7.3174 z m 183.13698,-34.49445 c 0.0666,-1.04562 0.25308,-1.25875 0.53946,-0.53946 0.25974,0.64603 0.22644,1.42192 -0.0733,1.72029 -0.2997,0.29971 -0.51282,-0.2331 -0.47286,-1.17816 z m -58.42937,-4.86317 c 1.00767,-1.97537 2.03398,-3.5911 2.28107,-3.5911 0.24643,0 -0.37296,1.61573 -1.38329,3.5911 -1.00767,1.97537 -2.03465,3.5911 -2.28107,3.5911 -0.24642,0 0.37296,-1.61573 1.38329,-3.5911 z m 59.39774,0 c 0,-1.23478 0.20646,-1.73961 0.45288,-1.12222 0.24643,0.61938 0.24643,1.62705 0,2.24444 -0.24642,0.61938 -0.45288,0.11322 -0.45288,-1.12222 z m -13.5379,-0.52615 c 0.0666,-1.04629 0.25308,-1.25875 0.53946,-0.53946 0.25974,0.64603 0.22644,1.42259 -0.0733,1.72096 -0.2997,0.2997 -0.51282,-0.2331 -0.47286,-1.17817 z m 0.96837,-4.86317 c 0,-1.23478 0.20646,-1.73961 0.45288,-1.12289 0.24643,0.61939 0.24643,1.62772 0,2.24511 -0.24642,0.61938 -0.45288,0.11322 -0.45288,-1.12222 z m 13.4673,0 c 0,-1.23478 0.20647,-1.73961 0.45289,-1.12289 0.24642,0.61939 0.24642,1.62772 0,2.24511 -0.24642,0.61938 -0.45289,0.11322 -0.45289,-1.12222 z m 13.79898,-0.31968 c 2.8918,-1.98137 19.54394,-11.45331 20.45704,-11.63646 0.4662,-0.0932 1.02831,0.33966 1.25609,0.96305 0.2664,0.72461 -3.67969,3.06296 -10.98178,6.50887 -11.49659,5.42595 -13.97413,6.387 -10.73135,4.16454 z m -12.8679,-4.62208 c 0,-1.4812 0.21978,-1.97871 0.44623,-1.10491 0.22644,0.87314 0.21312,2.08527 -0.0666,2.69333 -0.24643,0.60607 -0.43291,-0.10656 -0.41293,-1.58842 z m -98.0374,0.75192 c 0,-0.97637 30.88403,-67.58029 31.19372,-67.27126 0.1332,0.1332 -6.19252,15.35743 -14.05872,33.83043 -9.29478,21.82835 -14.79732,33.68858 -15.71841,33.87706 -0.77922,0.15984 -1.41659,-0.0666 -1.41659,-0.43956 z m 84.4995,-0.0733 c -0.0666,-0.61273 1.10557,-9.50391 2.58477,-19.75241 5.02168,-34.78815 5.59178,-37.93636 6.87651,-37.93636 0.666,0 1.20813,0.52615 1.20813,1.17217 0,1.13887 -9.52122,53.59083 -10.21786,56.28816 -0.1998,0.75991 -0.39294,0.85981 -0.45288,0.22644 z m 14.33511,-4.71732 c -0.0666,-1.34201 14.7507,-93.79695 15.64847,-97.63847 0.25975,-1.1109 1.11423,-2.01999 1.89945,-2.01999 1.02365,0 1.29072,0.57276 0.94573,2.01999 -0.2664,1.1109 -4.363,23.43342 -9.10696,49.60479 -8.48092,46.78292 -9.25149,50.72767 -9.38669,48.03368 z m -56.60984,-7.63177 c 0,-0.49284 0.39295,-1.50384 0.87047,-2.24444 0.47953,-0.74059 0.87047,-0.94239 0.87047,-0.44622 0,0.49284 -0.39294,1.50384 -0.87047,2.24444 -0.47952,0.7406 -0.87047,0.94306 -0.87047,0.44622 z m -145.29984,-7.1822 c 0,-1.48187 0.21978,-1.97871 0.44622,-1.10557 0.22645,0.8738 0.21313,2.08593 0,2.69332 -0.24642,0.60607 -0.4329,-0.10656 -0.41292,-1.58775 z m 65.59092,-0.17316 c 0.86381,-0.22645 2.27774,-0.22645 3.14222,0 0.86381,0.22644 0.15984,0.41292 -1.57111,0.41292 -1.72828,0 -2.43558,-0.18648 -1.57111,-0.41292 z m 82.8558,-0.72728 c 1.80954,-6.06332 32.11148,-88.14322 32.7968,-88.83986 3.54648,-3.60309 0.43956,5.79425 -14.52426,43.94839 -15.44135,39.36828 -19.87761,50.2668 -18.27254,44.89147 z m 74.07118,0.29304 c -5.51453,-1.58243 -10.80661,-6.75996 -10.80661,-10.57284 0,-1.60708 2.54348,-1.03498 3.09226,0.69464 1.03032,3.24545 5.53851,6.30308 12.61948,8.55951 l 7.18288,2.28839 -4.48888,-0.0666 c -2.46955,0 -5.88883,-0.43956 -7.59913,-0.93107 z M 185.32989,390.4552 c 0.0666,-1.04629 0.25308,-1.25875 0.53946,-0.53946 0.25974,0.64603 0.22644,1.42259 -0.0733,1.72096 -0.2997,0.2997 -0.51282,-0.2331 -0.47286,-1.17817 z m 124.72625,-1.27207 c 0.52615,-0.98768 1.16285,-1.79555 1.40994,-1.79555 0.24642,0 0,0.80787 -0.51283,1.79555 -0.52614,0.98769 -1.16284,1.79555 -1.40993,1.79555 -0.24642,0 0,-0.80786 0.51282,-1.79555 z m 2.81188,-4.48888 c 0.73927,-1.23477 8.96444,-15.17361 18.2772,-30.97527 9.31276,-15.80165 17.53927,-29.44678 18.2812,-30.32258 0.85581,-1.01033 1.66168,-1.2794 2.20514,-0.73593 0.54613,0.54612 -6.28177,12.11864 -18.67281,31.66924 -10.74134,16.94719 -19.95886,31.21703 -20.48301,31.71121 -0.52614,0.49284 -0.34632,-0.11322 0.39295,-1.34667 z m 88.7666,-5.74696 c 0,-1.1735 1.1069,-1.43724 6.05999,-1.44257 3.46656,-0.003 8.55817,-0.76924 11.89619,-1.78889 3.20949,-0.9797 6.03801,-1.77757 6.28444,-1.77158 0.24642,0.005 -1.57111,1.30537 -4.04,2.8878 -4.00402,2.56746 -5.33803,2.91445 -12.34508,3.21481 -6.74198,0.28639 -7.85554,0.13321 -7.85554,-1.09957 z m -118.20007,-5.50654 c -0.55944,-1.45322 4.60876,-43.6447 5.86419,-47.88849 0.62604,-2.10924 0.66733,-2.09392 4.45025,1.54047 4.17053,4.0067 8.04335,5.50721 12.51958,4.84986 1.78622,-0.25974 2.8898,-0.0666 2.8898,0.57942 0,1.10491 -17.86761,29.72451 -18.55759,29.72451 -0.42625,0 1.28872,-3.1582 10.17657,-18.70078 2.63472,-4.60676 4.78991,-8.54618 4.78991,-8.75398 0,-0.20646 -1.55978,-0.37962 -3.46589,-0.37962 -2.23445,0 -4.66471,-0.81319 -6.83922,-2.28906 -1.85482,-1.25875 -3.50785,-2.15387 -3.67302,-1.9887 -0.87247,0.87247 -5.29808,38.21409 -4.47423,37.75788 0.51949,-0.28639 0.43957,0 -0.17982,0.68465 -0.61938,0.66601 -1.12222,2.11457 -1.12222,3.22147 0,2.5215 -1.61506,3.63306 -2.3803,1.63838 z m 5.0743,-8.4989 c 0.52615,-0.98769 1.16285,-1.79555 1.40927,-1.79555 0.24642,0 0,0.80786 -0.51282,1.79555 -0.52615,0.98769 -1.16352,1.79555 -1.40994,1.79555 -0.24642,0 0,-0.80786 0.51283,-1.79555 z M 411.27639,337.3812 c -0.21979,-0.39294 1.12821,-6.377 2.99369,-13.29014 3.92411,-14.54224 4.16054,-14.25786 1.43391,1.72562 -1.74893,10.25049 -3.14221,13.89022 -4.4276,11.56452 z M 382.1353,311.71866 c -1.69698,-21.06443 -1.65569,-26.58895 0.18648,-24.74944 0.55278,0.55278 2.57145,47.43028 2.06262,47.93977 -0.19314,0.19314 -1.20414,-10.24317 -2.2471,-23.19033 z m -70.891,16.81066 c -11.79097,-2.46422 -17.72309,-5.2368 -24.09477,-11.26349 -2.55812,-2.41827 -4.97972,-4.39764 -5.38265,-4.39764 -0.40627,0 -2.66469,-1.23944 -5.02569,-2.7546 -5.54449,-3.5578 -7.98474,-8.38701 -7.98474,-15.79899 0,-6.09862 -0.21312,-5.70701 12.50093,-22.92792 7.25747,-9.83025 7.86287,-10.40102 14.98846,-14.13331 4.56281,-2.39096 8.46827,-5.18819 10.13195,-7.25813 1.48852,-1.85283 4.68668,-4.35502 7.10629,-5.56115 4.01601,-2.00069 4.29374,-2.33835 3.17951,-3.86151 -1.679,-2.29638 -1.62639,-8.50822 0.0733,-8.50822 0.84583,0 1.38929,1.16418 1.57177,3.36666 0.29304,3.52051 0.72062,3.7263 5.25745,2.52349 1.95473,-0.51948 2.60409,-0.11322 4.49088,2.81188 2.89713,4.48955 6.41697,5.09894 8.39367,1.45256 0.96238,-1.77624 1.37863,-2.05796 1.40394,-0.95239 0.0666,2.30039 -3.20215,5.16288 -5.86951,5.16288 -1.3733,0 -3.40795,-1.09425 -5.00703,-2.69333 -2.92044,-2.9211 -3.57512,-3.25677 -3.2288,-1.65702 0.12654,0.57276 -2.29172,2.016 -5.36734,3.21348 -4.05131,1.5771 -6.66272,3.36732 -9.47593,6.49622 -2.56212,2.84984 -6.31107,5.54516 -11.01774,7.92147 -7.07697,3.57246 -7.20884,3.70433 -16.5609,16.48365 l -9.42731,12.88189 0,5.99471 c 0,7.37935 1.61373,9.92682 8.71668,13.75769 2.74661,1.4812 7.00239,4.57479 9.45795,6.87451 6.54218,6.12659 14.52959,9.69305 25.82638,11.53189 l 5.24213,0.85316 7.92481,-4.53484 c 10.43298,-5.97074 23.83102,-15.90555 27.33887,-20.27322 8.46094,-10.53421 9.97611,-21.95022 3.38065,-25.47938 -1.47121,-0.78789 -2.11257,-1.87614 -2.04131,-3.4659 0.0799,-1.85483 0.19314,-1.95872 0.53947,-0.51948 0.69131,2.87448 1.92009,3.6597 3.17218,2.02798 1.02299,-1.33334 2.14787,-1.10956 12.34842,2.4609 6.17254,2.15985 10.9165,3.95274 10.5422,3.98404 -0.71862,0.0666 -18.79069,-4.11258 -21.63386,-4.99437 -1.47521,-0.45955 -1.42925,-0.19981 0.3996,2.2784 4.79191,6.48157 0.82518,20.10805 -8.22184,28.24132 -9.57983,8.61345 -27.66056,21.32351 -31.81511,22.36514 -0.98768,0.24642 -6.31107,-0.49284 -11.83026,-1.64703 z M 190.86839,300.97199 c 0.333,-1.00766 16.88525,-7.73566 19.0804,-7.7563 0.49285,-0.005 -2.94041,1.97071 -7.63109,4.38964 -8.55951,4.41296 -12.14662,5.46791 -11.44931,3.36666 z m 45.72464,-4.55415 c -2.13455,-1.55978 -6.14457,-3.64838 -8.9105,-4.64072 -5.039,-1.80688 -7.2821,-4.04799 -4.05198,-4.04799 5.52652,0 13.78766,5.0037 16.43836,9.95679 1.14154,2.13255 1.21213,2.15853 -3.47588,-1.26808 z m 22.77207,-1.56711 c -7.81491,-6.45826 -9.35339,-7.24148 -19.59456,-9.98143 -14.48696,-3.87482 -14.58553,-4.29574 -1.98869,-8.47159 9.52788,-3.15887 11.6218,-4.29108 16.67812,-9.02105 l 4.27576,-3.9987 3.88814,2.02332 c 2.63605,1.37198 6.15123,2.1845 10.91717,2.52417 l 7.02969,0.4995 -4.89514,5.40197 c -2.69267,2.97106 -5.75296,6.80925 -6.80192,8.52888 -1.0483,1.72029 -1.90744,2.76792 -1.90944,2.32902 -0.005,-1.28339 5.36534,-9.75299 7.8915,-12.44432 l 2.31704,-2.46889 -4.55415,0 c -2.50485,0 -6.67405,-0.68532 -9.26614,-1.52182 l -4.71266,-1.52249 -1.92742,2.24178 c -2.86716,3.33269 -9.32542,7.49057 -14.75403,9.49857 l -4.8019,1.77558 6.14856,2.05063 c 7.18687,2.39695 14.64681,6.74198 19.39077,11.29479 6.14124,5.89216 3.4892,6.89649 -3.3307,1.26075 z m 46.30739,-4.23246 c -0.0666,-3.28941 0.47287,-7.03169 1.28406,-8.97843 1.33601,-3.21081 8.10596,-10.96912 9.57117,-10.96912 1.8162,0 0.39295,3.54049 -2.54414,6.33305 -3.73163,3.54582 -6.48823,9.09365 -7.50256,15.09836 l -0.70263,4.15654 -0.10656,-5.6404 z m -40.35463,0.25308 c 0,-0.98769 0.31968,-2.60342 0.74526,-3.59111 0.98303,-2.28773 0.98303,0.0733 0,3.14222 -0.57942,1.80488 -0.72395,1.89279 -0.74526,0.44622 z m 73.47244,0.1665 c -0.005,-2.29173 1.55912,-5.07896 4.73397,-8.43363 3.27742,-3.4639 2.70798,-4.5748 -4.11725,-8.03337 -3.01767,-1.52915 -4.13723,-2.53748 -3.51185,-3.16286 2.27108,-2.27108 13.70641,5.12025 13.63115,8.81126 0,0.92109 -1.64104,2.78657 -3.60509,4.14522 -1.96472,1.35865 -4.37167,3.78291 -5.34936,5.38732 -1.24876,2.0473 -1.77957,2.43026 -1.78157,1.28606 z m -33.66527,-19.46869 c 0.39295,-0.74059 1.55846,-2.27574 2.5961,-3.41128 1.03763,-1.13487 3.09825,-4.56946 4.57945,-7.63109 2.14987,-4.44359 3.69034,-6.24181 7.63176,-8.90717 2.71598,-1.83617 5.44327,-3.35134 6.06066,-3.36666 2.40761,-0.0666 0.94306,2.65204 -2.46955,4.56947 -1.97471,1.11023 -3.59111,2.34834 -3.59111,2.75127 0,0.40626 3.33336,0.77989 7.40732,0.83717 6.97908,0.0999 7.14758,0.14652 2.91777,0.81253 -2.46888,0.38628 -6.77461,0.9717 -9.56784,1.29538 -4.22181,0.48618 -5.16287,0.92042 -5.57513,2.5548 -0.27306,1.08159 -2.7919,4.18851 -5.59712,6.90448 -2.80588,2.71531 -4.78192,4.3317 -4.39231,3.5911 z m 42.4046,-0.14652 c -1.69498,-0.61938 -4.74462,-4.19051 -9.62845,-11.27614 -6.5122,-9.4473 -7.63509,-11.91818 -5.41729,-11.91818 0.42625,0 3.71565,4.84852 7.31141,10.77398 3.59577,5.92545 6.78261,10.77398 7.08231,10.77398 0.2997,0 1.32802,0.59274 2.28707,1.31802 2.01466,1.52382 1.7729,1.57244 -1.63505,0.32635 z m 9.31742,-2.78856 c -0.0666,-0.87514 -1.72429,-4.81456 -3.70499,-8.75398 -1.9807,-3.93943 -3.39929,-7.1629 -3.15287,-7.1629 1.00167,0 7.72367,14.63415 7.35737,16.01678 -0.34632,1.30537 -0.40627,1.29338 -0.49951,-0.0999 z m -36.24137,-1.69699 c -3.00835,-1.04896 -5.16221,-2.33035 -5.16221,-3.07162 0,-1.7043 0.92042,-1.61639 7.62909,0.72462 4.97573,1.73694 6.22449,1.86215 9.58716,0.96504 2.12655,-0.5661 3.9927,-0.90643 4.14588,-0.75259 0.15319,0.15319 -1.10224,1.13355 -2.79123,2.17784 -3.74295,2.31304 -6.67604,2.30372 -13.40869,-0.0666 z m -70.70386,-4.82588 c 0,-0.75924 2.6274,-6.88317 5.83888,-13.60916 3.58377,-7.50655 5.15821,-11.61314 4.07662,-10.63412 -2.5255,2.28574 -5.51386,1.21014 -9.21885,-3.3187 -6.00938,-7.34538 -7.30476,-10.93782 -7.6957,-21.33617 -0.34633,-9.28678 -0.31969,-9.46061 2.06661,-11.67175 l 2.42027,-2.24444 -2.00202,3.41261 c -1.90144,3.24145 -1.9474,3.76027 -0.91642,10.32509 0.59941,3.80156 2.01667,8.98109 3.15487,11.50925 2.02466,4.49687 8.00073,12.01275 9.55119,12.01275 0.42625,0 1.37197,-1.41393 2.09392,-3.14222 1.34733,-3.22413 2.70266,-4.00536 3.50386,-2.01999 0.24642,0.61938 0.50617,0.31302 0.56611,-0.67334 0.0666,-0.98768 0.83717,-7.6544 1.72029,-14.81463 1.59908,-12.9718 1.59775,-13.07902 -0.45954,-30.07683 -2.70532,-22.36781 -2.696,-23.6512 0.1998,-26.77477 4.92178,-5.30806 9.88885,-5.45392 24.31521,-0.71329 12.61615,4.14589 21.87896,5.21017 32.20138,3.701 l 7.15291,-1.04563 10.85989,3.72297 10.85989,3.72364 3.75627,11.89153 3.75628,11.89087 -3.03433,12.6994 c -1.93075,8.07999 -2.72263,13.0111 -2.17584,13.55722 3.031,3.03166 -8.03935,3.92144 -14.15862,1.1382 -5.48922,-2.49752 -6.06265,-3.57245 -4.56214,-8.55751 2.50485,-8.32374 7.13159,-12.1566 17.08772,-14.15595 4.51618,-0.9071 4.98239,-1.21946 4.98239,-3.34402 0,-2.89379 -6.11993,-21.71978 -7.51455,-23.11373 -0.55944,-0.55945 -4.94443,-2.30571 -9.74699,-3.88282 -8.69538,-2.85516 -8.77796,-2.86382 -19.30352,-2.01133 -5.81423,0.47286 -13.39871,0.53946 -16.85528,0.14652 -4.61209,-0.51949 -6.64341,-0.40627 -7.63176,0.41958 -2.96173,2.48021 -3.84152,2.64804 -2.69999,0.51283 1.36998,-2.56013 0.92242,-2.92377 -7.17621,-5.83089 -8.80593,-3.16153 -14.6135,-2.83585 -17.67513,0.99036 -2.53549,3.16819 -2.53948,2.24843 0.0999,24.24128 2.03132,16.92387 2.08993,18.65416 0.92175,27.3835 -1.55379,11.61381 -1.56578,12.45897 -0.17982,12.46563 0.86381,0.005 12.64346,27.55999 13.95416,32.64428 0.14652,0.55944 -3.25677,-6.05133 -7.55851,-14.69276 l -7.82157,-15.71241 -0.5661,4.04066 c -0.31303,2.23578 -3.62507,10.35439 -7.41531,18.18063 -6.22183,12.84858 -8.77263,16.55824 -8.77263,12.76067 z m 12.91253,-27.8457 c 0.30636,-0.79921 0.15318,-1.15952 -0.35299,-0.84516 -0.48618,0.2997 -0.88778,0.92907 -0.88778,1.39328 0,1.29205 0.64602,1.007 1.24077,-0.54612 z m 88.07395,-17.68579 c 4.59078,-19.97618 4.51952,-19.52729 3.10492,-19.52729 -3.62041,0 -17.49664,9.68106 -16.00879,11.16892 0.23311,0.2331 2.02266,-0.14652 3.97872,-0.84516 1.95673,-0.69665 4.56747,-1.2501 5.80158,-1.22879 l 2.24444,0.0666 -2.29639,0.6973 c -1.26341,0.38629 -3.23212,1.19682 -4.37432,1.80821 l -2.07661,1.11156 2.57811,1.70698 2.57811,1.70697 2.52283,-2.9191 c 2.35499,-2.7253 2.48154,-2.76992 1.90611,-0.67467 -0.77523,2.82387 -2.97039,7.18288 -3.61708,7.18288 -0.2664,0 -2.22846,-1.19748 -4.35568,-2.66136 -3.71898,-2.55813 -3.92477,-2.59809 -5.34736,-1.02632 -1.21746,1.34533 -1.26808,1.80954 -0.28638,2.62473 2.08792,1.73295 5.47123,2.74261 9.38402,2.80122 3.2268,0.0666 3.86883,-0.24642 4.2631,-1.96272 z m 0.53946,20.35114 c 0.0666,-1.04629 0.25309,-1.25875 0.53947,-0.53946 0.25974,0.64602 0.22644,1.42259 -0.0733,1.72096 -0.2997,0.2997 -0.51283,-0.2331 -0.47287,-1.17817 z m -0.72394,-9.35272 c 0,-2.22179 0.17316,-3.13089 0.38628,-2.01999 0.21312,1.11089 0.21312,2.92909 0,4.03999 -0.21312,1.11156 -0.38628,0.1998 -0.38628,-2.02 z m -28.94662,-5.6111 c 0,-5.59911 0.2331,-6.95843 1.31803,-6.95843 1.85882,0 1.88213,9.72369 0,12.17393 -1.19615,1.58109 -1.32069,1.09824 -1.34667,-5.2155 z m -70.85171,0.55945 c -6.16122,-4.31572 -5.92279,-14.99446 0.44623,-20.00482 3.39729,-2.67202 4.6667,-2.33901 5.37,1.4086 0.33967,1.80554 1.15419,4.32105 1.81221,5.58912 1.01565,1.95873 0.99834,2.41627 -0.11323,3.04032 -3.37864,1.89012 -3.38597,8.73733 0,8.73733 0.75259,0 1.36865,0.60607 1.36865,1.34667 0,1.86947 -6.1519,1.78822 -8.8732,-0.11989 z m 3.85152,-2.35167 c -0.35299,-0.61938 -1.18616,-1.76425 -1.85616,-2.54814 -1.04563,-1.22478 -0.86115,-1.92209 1.3067,-4.93843 2.19183,-3.04964 2.41094,-3.90013 1.66502,-6.45893 -0.47287,-1.62039 -1.2774,-2.80721 -1.7889,-2.63671 -1.86748,0.61938 -4.32437,4.9311 -4.78924,8.399 -0.39961,2.95573 -0.0666,4.04332 1.94074,6.43095 2.34833,2.79056 4.80923,4.01535 3.52184,1.75226 z m 48.11759,0.31302 c -3.23745,-1.02831 -10.06934,-4.55947 -11.85224,-6.12592 -1.35332,-1.18882 -1.37996,-1.56578 -0.2331,-3.31671 4.68335,-7.14691 18.57823,-7.8229 24.34784,-1.18416 1.53381,1.76492 1.43658,1.7516 -1.34733,-0.17982 -3.27475,-2.27574 -9.35871,-3.33536 -13.33144,-2.32103 l -2.52283,0.64603 3.84951,3.43459 c 3.48588,3.11025 4.12192,3.35667 6.728,2.60941 4.16986,-1.19615 4.19384,-1.01965 0.1998,1.44257 -3.23746,1.99336 -3.36999,2.20981 -1.34667,2.19649 3.51718,0 10.12196,-3.33003 9.33541,-4.67337 -0.3663,-0.62604 0.21312,-0.3663 1.28406,0.57277 1.07227,0.94107 1.95006,1.84284 1.95006,2.00534 0,0.15984 -1.9414,1.27807 -4.31438,2.48087 -5.045,2.55614 -9.59515,3.41994 -12.74403,2.41894 z m -2.70598,-6.73864 c -2.95707,-2.90645 -4.32638,-3.71232 -5.15023,-3.03233 -0.61938,0.50617 -1.12222,1.24477 -1.12222,1.63438 0,0.63937 8.64676,5.35735 9.8156,5.35735 0.2664,0 -1.32735,-1.78156 -3.54315,-3.9594 z m -28.71818,3.70099 c 0,-0.63936 2.0533,-3.16086 4.56348,-5.61176 l 4.5628,-4.45492 -3.44058,5.60111 c -3.20482,5.21683 -5.6857,7.16556 -5.6857,4.46557 z m 46.23813,-12.63213 c -5.67837,-5.93345 -8.77063,-6.86186 -22.84933,-6.86186 -8.37503,0 -10.88054,-0.2664 -10.59615,-1.12222 0.2664,-0.79788 3.57378,-1.19548 11.45396,-1.37597 10.3897,-0.23976 11.38005,-0.10656 15.86626,2.08793 4.3024,2.10524 6.97309,4.88915 10.51424,10.95979 1.09625,1.8788 0.29304,1.20148 -4.38898,-3.68767 z m -43.87514,-14.67478 c -1.18682,-1.18615 -0.34632,-2.04463 7.28877,-7.45726 l 7.85621,-5.56781 -5.83621,5.99405 c -6.10994,6.27577 -8.36304,7.97742 -9.30877,7.03102 z m 77.90671,-36.40521 -1.7103,-2.02 2.02066,1.71031 c 1.89812,1.60773 2.42826,2.33035 1.7103,2.33035 -0.17316,0 -1.07959,-0.9091 -2.02066,-2.02066 z m -4.30839,-5.02568 -1.70031,-2.38097 2.09925,1.99535 c 1.15485,1.09691 1.92009,2.16852 1.70031,2.38097 -0.21978,0.21312 -1.16418,-0.68598 -2.09925,-1.99535 z m -4.57813,-2.81987 c -0.31302,-0.50617 0.0666,-0.65935 0.84517,-0.35298 1.55512,0.5994 1.84017,1.24076 0.54612,1.24076 -0.4662,0 -1.09225,-0.3996 -1.39395,-0.88778 z m -1.28206,-4.12524 c 0.0666,-1.04563 0.25308,-1.25875 0.54613,-0.53947 0.25974,0.64603 0.22644,1.42259 -0.0733,1.72096 -0.2997,0.29971 -0.51283,-0.2331 -0.47287,-1.17883 z m -0.89777,-3.59111 c 0.0666,-1.04629 0.25308,-1.25875 0.53946,-0.54612 0.25974,0.64603 0.22644,1.42259 -0.0733,1.72096 -0.2997,0.2997 -0.51282,-0.2331 -0.47286,-1.17817 z m -89.32072,-2.03398 c -0.73927,-1.19681 2.9544,-13.44865 5.99538,-19.88827 5.3507,-11.33009 18.17331,-20.908577 29.38485,-21.951547 4.5042,-0.41958 4.63807,-0.37962 1.52515,0.41958 -9.54719,2.45091 -21.07242,10.779307 -26.30723,19.011807 -1.15885,1.82219 -3.55114,7.78161 -5.31672,13.24286 -2.97905,9.21353 -4.07596,11.1183 -5.28143,9.16824 z"
       id="path4306"
       inkscape:connector-curvature="0" />
  </g>
</svg>
