<svg xmlns="http://www.w3.org/2000/svg" viewBox="0 0 749.44 813.79"><defs><style>.a{fill:none;stroke:#000;stroke-linecap:round;stroke-miterlimit:10;stroke-width:16px;}</style></defs><circle cx="99.49" cy="563.78" r="57.8"/><path d="M69.81,626.79H128.7a69.81,69.81,0,0,1,69.81,69.81v60a5.69,5.69,0,0,1-5.69,5.69H5.69A5.69,5.69,0,0,1,0,756.6v-60A69.81,69.81,0,0,1,69.81,626.79Z"/><circle cx="650.42" cy="556.69" r="57.8"/><path d="M620.74,619.7h58.89a69.81,69.81,0,0,1,69.81,69.81v60a5.69,5.69,0,0,1-5.69,5.69H556.61a5.69,5.69,0,0,1-5.69-5.69v-60A69.81,69.81,0,0,1,620.74,619.7Z"/><circle cx="365.91" cy="57.8" r="57.8"/><path d="M336.23,120.81h58.89a69.81,69.81,0,0,1,69.81,69.81v60a5.69,5.69,0,0,1-5.69,5.69H272.1a5.69,5.69,0,0,1-5.69-5.69v-60A69.81,69.81,0,0,1,336.23,120.81Z"/><path class="a" d="M1100.34,298.76c119.3,49.71,203.16,167.43,203.16,304.74" transform="translate(-608 -127.71)"/><path class="a" d="M643.5,603.5c0-135,81.06-251.07,197.17-302.18" transform="translate(-608 -127.71)"/><path class="a" d="M1103.47,906.92a331.22,331.22,0,0,1-248.13,4.8" transform="translate(-608 -127.71)"/><path d="M1093.63,502.74a92.18,92.18,0,0,0-29.25,4.73,107,107,0,0,0-186-4.57c-1.85-.11-3.72-.16-5.6-.16a100.78,100.78,0,1,0,45.62,190.65,103.1,103.1,0,0,0,161.51-7.11,92.28,92.28,0,1,0,13.73-183.54Z" transform="translate(-608 -127.71)"/></svg>