<?xml version="1.0" encoding="UTF-8"?>
<svg width="100px" height="113px" viewBox="0 0 100 113" version="1.1" xmlns="http://www.w3.org/2000/svg" xmlns:xlink="http://www.w3.org/1999/xlink">
    <title>Group 2</title>
    <defs>
        <linearGradient x1="36.1169401%" y1="45.1350456%" x2="85.81154%" y2="50.5718219%" id="linearGradient-1">
            <stop stop-color="#E0E8EA" offset="0%"></stop>
            <stop stop-color="#808080" offset="20.6594187%"></stop>
            <stop stop-color="#191918" offset="67.5671984%"></stop>
            <stop stop-color="#C2C2C2" offset="100%"></stop>
        </linearGradient>
        <polygon id="path-2" points="19.208 5.36342351 117.690397 0.142504651 126.3211 6.64459656 117.81933 13.5129512 19.208 10.3729377"></polygon>
        <filter x="-3.3%" y="-18.7%" width="106.5%" height="152.4%" filterUnits="objectBoundingBox" id="filter-3">
            <feOffset dx="0" dy="1" in="SourceAlpha" result="shadowOffsetOuter1"></feOffset>
            <feGaussianBlur stdDeviation="1" in="shadowOffsetOuter1" result="shadowBlurOuter1"></feGaussianBlur>
            <feColorMatrix values="0 0 0 0 0   0 0 0 0 0   0 0 0 0 0  0 0 0 0.5 0" type="matrix" in="shadowBlurOuter1"></feColorMatrix>
        </filter>
        <polygon id="path-4" points="19.208 5.36342351 117.690397 0.142504651 126.3211 6.64459656 117.81933 13.5129512 19.208 10.3729377"></polygon>
        <filter x="-3.3%" y="-18.7%" width="106.5%" height="152.4%" filterUnits="objectBoundingBox" id="filter-5">
            <feOffset dx="0" dy="1" in="SourceAlpha" result="shadowOffsetOuter1"></feOffset>
            <feGaussianBlur stdDeviation="1" in="shadowOffsetOuter1" result="shadowBlurOuter1"></feGaussianBlur>
            <feColorMatrix values="0 0 0 0 0   0 0 0 0 0   0 0 0 0 0  0 0 0 0.5 0" type="matrix" in="shadowBlurOuter1"></feColorMatrix>
        </filter>
        <linearGradient x1="8.28746384%" y1="-5.13158423%" x2="97.8387118%" y2="105.272157%" id="linearGradient-6">
            <stop stop-color="#EDEDED" offset="0%"></stop>
            <stop stop-color="#757575" offset="47.4814248%"></stop>
            <stop stop-color="#E4E4E4" offset="100%"></stop>
        </linearGradient>
        <linearGradient x1="14.5283241%" y1="13.8070661%" x2="85.81154%" y2="86.698992%" id="linearGradient-7">
            <stop stop-color="#E0E8EA" offset="0%"></stop>
            <stop stop-color="#808080" offset="20.6594187%"></stop>
            <stop stop-color="#191918" offset="67.5671984%"></stop>
            <stop stop-color="#C2C2C2" offset="100%"></stop>
        </linearGradient>
        <path d="M44.5,0 C69.0766714,0 89,19.9233286 89,44.5 C89,69.0766714 69.0766714,89 44.5,89 C19.9233286,89 0,69.0766714 0,44.5 C0,19.9233286 19.9233286,0 44.5,0 Z M44.5,5.19166667 C22.790607,5.19166667 5.19166667,22.790607 5.19166667,44.5 C5.19166667,66.209393 22.790607,83.8083333 44.5,83.8083333 C66.209393,83.8083333 83.8083333,66.209393 83.8083333,44.5 C83.8083333,22.790607 66.209393,5.19166667 44.5,5.19166667 Z" id="path-8"></path>
        <filter x="-3.9%" y="-2.8%" width="107.9%" height="107.9%" filterUnits="objectBoundingBox" id="filter-9">
            <feOffset dx="0" dy="1" in="SourceAlpha" result="shadowOffsetOuter1"></feOffset>
            <feGaussianBlur stdDeviation="1" in="shadowOffsetOuter1" result="shadowBlurOuter1"></feGaussianBlur>
            <feColorMatrix values="0 0 0 0 0   0 0 0 0 0   0 0 0 0 0  0 0 0 0.5 0" type="matrix" in="shadowBlurOuter1"></feColorMatrix>
        </filter>
        <linearGradient x1="9.78518743%" y1="4.99629408%" x2="91.0263205%" y2="95.5416159%" id="linearGradient-10">
            <stop stop-color="#EEEEEE" offset="0%"></stop>
            <stop stop-color="#262626" offset="100%"></stop>
        </linearGradient>
        <path d="M44.6,9 C64.2613371,9 80.2,24.9386629 80.2,44.6 C80.2,64.2613371 64.2613371,80.2 44.6,80.2 C24.9386629,80.2 9,64.2613371 9,44.6 C9,24.9386629 24.9386629,9 44.6,9 Z M44.6,16.7875 C29.2395804,16.7875 16.7875,29.2395804 16.7875,44.6 C16.7875,59.9604196 29.2395804,72.4125 44.6,72.4125 C59.9604196,72.4125 72.4125,59.9604196 72.4125,44.6 C72.4125,29.2395804 59.9604196,16.7875 44.6,16.7875 Z" id="path-11"></path>
        <filter x="-4.9%" y="-3.5%" width="109.8%" height="109.8%" filterUnits="objectBoundingBox" id="filter-12">
            <feOffset dx="0" dy="1" in="SourceAlpha" result="shadowOffsetOuter1"></feOffset>
            <feGaussianBlur stdDeviation="1" in="shadowOffsetOuter1" result="shadowBlurOuter1"></feGaussianBlur>
            <feColorMatrix values="0 0 0 0 0   0 0 0 0 0   0 0 0 0 0  0 0 0 0.5 0" type="matrix" in="shadowBlurOuter1"></feColorMatrix>
        </filter>
        <radialGradient cx="50%" cy="50%" fx="50%" fy="50%" r="50%" id="radialGradient-13">
            <stop stop-color="#959595" offset="0%"></stop>
            <stop stop-color="#494747" offset="100%"></stop>
        </radialGradient>
        <radialGradient cx="50%" cy="50.3810642%" fx="50%" fy="50.3810642%" r="49.6189358%" id="radialGradient-14">
            <stop stop-color="#626262" offset="0%"></stop>
            <stop stop-color="#2C2B2B" offset="100%"></stop>
        </radialGradient>
    </defs>
    <g id="Page-1" stroke="none" stroke-width="1" fill="none" fill-rule="evenodd">
        <g id="SQL_logo" transform="translate(-114.000000, -63.000000)">
            <g id="Group-3" transform="translate(64.000000, 41.000000)">
                <g id="Group-2" transform="translate(51.000000, 24.000000)">
                    <g id="Group" transform="translate(51.304117, 55.070395) rotate(-129.000000) translate(-51.304117, -55.070395) translate(-12.195883, 47.070395)">
                        <g id="Rectangle">
                            <use fill="black" fill-opacity="1" filter="url(#filter-3)" xlink:href="#path-2"></use>
                            <use fill="url(#linearGradient-1)" fill-rule="evenodd" xlink:href="#path-2"></use>
                        </g>
                        <polygon id="Line-2-Copy-6" fill="#FFFFFF" fill-rule="nonzero" points="23.2712308 8.17151986 24.2494654 8.17151986 26.5956923 10.7715489 25.7005218 10.7715489"></polygon>
                        <polygon id="Line-2-Copy-8" fill="#FFFFFF" fill-rule="nonzero" points="26.5956923 8.17151986 27.5739269 8.17151986 29.9201538 10.7715489 29.0249833 10.7715489"></polygon>
                        <polygon id="Line-2-Copy-9" fill="#FFFFFF" fill-rule="nonzero" points="30.2895385 8.17151986 31.2677731 8.17151986 33.614 10.7715489 32.7188295 10.7715489"></polygon>
                        <polygon id="Line-2-Copy-10" fill="#FFFFFF" fill-rule="nonzero" points="34.7221538 8.17151986 35.7003885 8.17151986 38.0466154 10.7715489 37.1514449 10.7715489"></polygon>
                        <polygon id="Line-2-Copy-11" fill="#FFFFFF" fill-rule="nonzero" points="39.1547692 8.17151986 40.1330038 8.17151986 42.4792308 10.7715489 41.5840603 10.7715489"></polygon>
                        <polygon id="Line-2-Copy-12" fill="#FFFFFF" fill-rule="nonzero" points="43.5873846 8.17151986 44.5656192 8.17151986 46.9118462 10.7715489 46.0166757 10.7715489"></polygon>
                        <polygon id="Line" fill="#D2D2D2" fill-rule="nonzero" points="113.496787 6.66159607 114.49502 6.96930101 113.496787 7.27700595 20.6855385 8.41549702 20.6855385 7.80008714"></polygon>
                        <polygon id="Rectangle-Copy" stroke="#DADADA" stroke-width="2" points="19.208 5.36342351 117.690397 0.142504651 126.3211 6.64459656 117.81933 13.5129512 19.208 10.3729377"></polygon>
                        <path d="M19.0463123,1.11429816 C20.1391297,3.66897447 20.6855385,6.09199688 20.6855385,8.38336539 C20.6855385,10.6747339 20.1391297,12.956526 19.0463123,15.2287416 L16.416442,13.7729412 L18.5509902,11.4904332 L16.9363413,10.2432564 L6.76616051,10.2432564 L4.48756626,11.4904332 L0,8.38336539 L4.48756626,4.9826496 L6.76616051,6.39191001 L16.416442,5.89921476 L17.8424973,4.9826496 L16.0483244,2.2422615 L19.0463123,1.11429816 Z" id="Path" stroke="#979797" fill="#646464"></path>
                        <path d="M6.89889137,6.33447832 L8.11488865,6.33447832 L11.8172034,10.3683068 L10.563336,10.3683068 L6.89889137,6.33447832 Z M8.85859369,6.24692201 L10.0948395,6.24692201 L14.0299783,10.3326819 L12.7552318,10.3326819 L8.85859369,6.24692201 Z M11.0745638,6.20802765 L12.3136463,6.20802765 L16.2459484,10.2937876 L14.9682769,10.2937876 L11.0745638,6.20802765 Z" id="Line-2-Copy-7" fill="#C4C4C4" fill-rule="nonzero"></path>
                        <path d="M19.0463123,1.11429816 C20.1391297,3.66897447 20.6855385,6.09199688 20.6855385,8.38336539 C20.6855385,10.6747339 20.1391297,12.956526 19.0463123,15.2287416 L16.416442,13.7729412 L18.5509902,11.4904332 L16.9363413,10.2432564 L6.76616051,10.2432564 L4.48756626,11.4904332 L0,8.38336539 L4.48756626,4.9826496 L6.76616051,6.39191001 L16.416442,5.89921476 L17.8424973,4.9826496 L16.0483244,2.2422615 L19.0463123,1.11429816 Z" id="Path-Copy-3" stroke="#979797"></path>
                    </g>
                    <g id="Group-Copy" transform="translate(46.695883, 55.070395) scale(-1, 1) rotate(-129.000000) translate(-46.695883, -55.070395) translate(-16.804117, 47.070395)">
                        <g id="Rectangle">
                            <use fill="black" fill-opacity="1" filter="url(#filter-5)" xlink:href="#path-4"></use>
                            <use fill="url(#linearGradient-1)" fill-rule="evenodd" xlink:href="#path-4"></use>
                        </g>
                        <polygon id="Line-2-Copy-6" fill="#FFFFFF" fill-rule="nonzero" points="23.2712308 8.17151986 24.2494654 8.17151986 26.5956923 10.7715489 25.7005218 10.7715489"></polygon>
                        <polygon id="Line-2-Copy-8" fill="#FFFFFF" fill-rule="nonzero" points="26.5956923 8.17151986 27.5739269 8.17151986 29.9201538 10.7715489 29.0249833 10.7715489"></polygon>
                        <polygon id="Line-2-Copy-9" fill="#FFFFFF" fill-rule="nonzero" points="30.2895385 8.17151986 31.2677731 8.17151986 33.614 10.7715489 32.7188295 10.7715489"></polygon>
                        <polygon id="Line-2-Copy-10" fill="#FFFFFF" fill-rule="nonzero" points="34.7221538 8.17151986 35.7003885 8.17151986 38.0466154 10.7715489 37.1514449 10.7715489"></polygon>
                        <polygon id="Line-2-Copy-11" fill="#FFFFFF" fill-rule="nonzero" points="39.1547692 8.17151986 40.1330038 8.17151986 42.4792308 10.7715489 41.5840603 10.7715489"></polygon>
                        <polygon id="Line-2-Copy-12" fill="#FFFFFF" fill-rule="nonzero" points="43.5873846 8.17151986 44.5656192 8.17151986 46.9118462 10.7715489 46.0166757 10.7715489"></polygon>
                        <polygon id="Line" fill="#D2D2D2" fill-rule="nonzero" points="113.496787 6.66159607 114.49502 6.96930101 113.496787 7.27700595 20.6855385 8.41549702 20.6855385 7.80008714"></polygon>
                        <polygon id="Rectangle-Copy" stroke="#DADADA" stroke-width="2" points="19.208 5.36342351 117.690397 0.142504651 126.3211 6.64459656 117.81933 13.5129512 19.208 10.3729377"></polygon>
                        <path d="M19.0463123,1.11429816 C20.1391297,3.66897447 20.6855385,6.09199688 20.6855385,8.38336539 C20.6855385,10.6747339 20.1391297,12.956526 19.0463123,15.2287416 L16.416442,13.7729412 L18.5509902,11.4904332 L16.9363413,10.2432564 L6.76616051,10.2432564 L4.48756626,11.4904332 L0,8.38336539 L4.48756626,4.9826496 L6.76616051,6.39191001 L16.416442,5.89921476 L17.8424973,4.9826496 L16.0483244,2.2422615 L19.0463123,1.11429816 Z" id="Path" stroke="#979797" fill="#646464"></path>
                        <path d="M6.89889137,6.33447832 L8.11488865,6.33447832 L11.8172034,10.3683068 L10.563336,10.3683068 L6.89889137,6.33447832 Z M8.85859369,6.24692201 L10.0948395,6.24692201 L14.0299783,10.3326819 L12.7552318,10.3326819 L8.85859369,6.24692201 Z M11.0745638,6.20802765 L12.3136463,6.20802765 L16.2459484,10.2937876 L14.9682769,10.2937876 L11.0745638,6.20802765 Z" id="Line-2-Copy-7" fill="#C4C4C4" fill-rule="nonzero"></path>
                        <path d="M19.0463123,1.11429816 C20.1391297,3.66897447 20.6855385,6.09199688 20.6855385,8.38336539 C20.6855385,10.6747339 20.1391297,12.956526 19.0463123,15.2287416 L16.416442,13.7729412 L18.5509902,11.4904332 L16.9363413,10.2432564 L6.76616051,10.2432564 L4.48756626,11.4904332 L0,8.38336539 L4.48756626,4.9826496 L6.76616051,6.39191001 L16.416442,5.89921476 L17.8424973,4.9826496 L16.0483244,2.2422615 L19.0463123,1.11429816 Z" id="Path-Copy-3" stroke="#979797"></path>
                    </g>
                    <g id="Group" transform="translate(5.000000, 8.000000)">
                        <circle id="Oval-Copy-2" fill="url(#linearGradient-6)" cx="44.5" cy="44.5" r="44.5"></circle>
                        <g id="Combined-Shape">
                            <use fill="black" fill-opacity="1" filter="url(#filter-9)" xlink:href="#path-8"></use>
                            <use fill="url(#linearGradient-7)" fill-rule="evenodd" xlink:href="#path-8"></use>
                        </g>
                        <g id="Combined-Shape">
                            <use fill="black" fill-opacity="1" filter="url(#filter-12)" xlink:href="#path-11"></use>
                            <use fill="url(#linearGradient-10)" fill-rule="evenodd" xlink:href="#path-11"></use>
                        </g>
                        <circle id="Oval-Copy-5" fill="url(#radialGradient-13)" cx="45.4166667" cy="34.4166667" r="7.41666667"></circle>
                        <circle id="Oval-Copy-6" fill="url(#radialGradient-13)" cx="34.4875" cy="51.4541667" r="7.41666667"></circle>
                        <circle id="Oval-Copy-7" fill="url(#radialGradient-13)" cx="57.2541667" cy="51.4541667" r="7.41666667"></circle>
                        <circle id="Oval-Copy-8" fill="url(#radialGradient-14)" cx="44.5" cy="12.6083333" r="1.48333333"></circle>
                        <circle id="Oval-Copy-9" fill="url(#radialGradient-14)" cx="60.4458333" cy="16.6875" r="1.48333333"></circle>
                        <circle id="Oval-Copy-10" fill="url(#radialGradient-14)" cx="72.3125" cy="28.5541667" r="1.48333333"></circle>
                        <circle id="Oval-Copy-11" fill="url(#radialGradient-14)" cx="76.3916667" cy="44.5" r="1.48333333"></circle>
                        <circle id="Oval-Copy-12" fill="url(#radialGradient-14)" cx="72.3125" cy="60.4458333" r="1.48333333"></circle>
                        <circle id="Oval-Copy-13" fill="url(#radialGradient-14)" cx="60.4458333" cy="71.9416667" r="1.48333333"></circle>
                        <circle id="Oval-Copy-14" fill="url(#radialGradient-14)" cx="44.5" cy="76.3916667" r="1.48333333"></circle>
                        <circle id="Oval-Copy-15" fill="url(#radialGradient-14)" cx="28.5541667" cy="71.9416667" r="1.48333333"></circle>
                        <circle id="Oval-Copy-16" fill="url(#radialGradient-14)" cx="16.6875" cy="60.4458333" r="1.48333333"></circle>
                        <circle id="Oval-Copy-17" fill="url(#radialGradient-14)" cx="12.6083333" cy="44.5" r="1.48333333"></circle>
                        <circle id="Oval-Copy-18" fill="url(#radialGradient-14)" cx="16.6875" cy="28.5541667" r="1.48333333"></circle>
                        <circle id="Oval-Copy-19" fill="url(#radialGradient-14)" cx="28.5541667" cy="16.6875" r="1.48333333"></circle>
                    </g>
                </g>
            </g>
        </g>
    </g>
</svg>