<?xml version="1.0" encoding="UTF-8"?>
<svg width="65px" height="59px" viewBox="0 0 65 59" version="1.1" xmlns="http://www.w3.org/2000/svg" xmlns:xlink="http://www.w3.org/1999/xlink">
    <!-- Generator: Sketch 53.2 (72643) - https://sketchapp.com -->
    <title>logo copy</title>
    <desc>Created with Sketch.</desc>
    <g id="Page-1" stroke="none" stroke-width="1" fill="none" fill-rule="evenodd">
        <g id="logo-copy" transform="translate(0.000000, 1.000000)">
            <g id="Group" transform="translate(2.000000, 1.000000)" fill="#6B6B6B" fill-rule="nonzero">
                <path d="M53.236,28.81 C53.236,29.432 52.685,29.935 52.005,29.935 L9.635,29.935 C8.955,29.935 8.404,29.431 8.404,28.81 L8.404,1.501 C8.404,0.879 8.955,0.375 9.635,0.375 L52.006,0.375 C52.686,0.375 53.237,0.879 53.237,1.501 L53.237,28.81 L53.236,28.81 Z" id="Path"></path>
                <path d="M52.475,31.585 L8.376,31.585 L0.765,37.36 L0.765,40.247 L60.875,40.247 L60.875,37.36 L52.475,31.585 Z M20.714,37.36 L23.076,34.91 L38.563,34.91 L39.876,37.36 L20.714,37.36 Z" id="Shape"></path>
            </g>
            <g id="Group" transform="translate(19.000000, 0.000000)">
                <g stroke="#77D236" stroke-width="2">
                    <path d="M15.568,10.562 L15.571,14.705" id="Path"></path>
                    <path d="M11.863,10.562 L11.863,18.807" id="Path"></path>
                    <path d="M11.863,21.849 L11.863,18.807" id="Path"></path>
                    <polyline id="Path" points="11.863 21.849 11.863 27.711 9.325 30.551 17.53 30.551 15.581 28.193 15.577 22.244"></polyline>
                    <path d="M15.571,14.705 L15.577,22.244" id="Path"></path>
                    <path d="M15.577,22.244 L15.577,22.244" id="Path"></path>
                    <path d="M15.577,22.244 C17.521,22.347 18.71,20.141 18.71,20.141 C21.377,21.371 24.143,19.979 25.788,18.244 C27.634,16.295 26.095,12.141 26.095,12.141 C26.762,11.68 27.582,8.141 25.172,5.628 C22.762,3.115 18.915,4.346 18.915,4.346 C18.915,4.346 18.043,-0.012 13.684,0.243 C9.325,0.499 8.761,4.037 8.761,4.037 C8.761,4.037 6.402,1.473 2.812,4.755 C-0.778,8.037 1.683,11.883 1.683,11.883 C1.683,11.883 -0.624,15.575 2.453,18.755 C5.53,21.935 9.223,19.678 9.223,19.678 C9.602,20.774 11.278,21.591 11.864,21.848" id="Path"></path>
                    <path d="M12.068,21.936 C12.068,21.936 11.99,21.905 11.863,21.85" id="Path"></path>
                    <path d="M15.571,14.705 L15.571,14.705" id="Path"></path>
                    <path d="M19.222,9.833 L15.571,14.705" id="Path"></path>
                    <path d="M11.863,18.807 L8.401,15.269" id="Path"></path>
                    <circle id="Oval" cx="6.145" cy="9.576" r="2"></circle>
                    <circle id="Oval" cx="13.427" cy="5.884" r="2"></circle>
                    <circle id="Oval" cx="20.906" cy="15.269" r="2"></circle>
                </g>
                <rect id="Rectangle" fill="#77D236" fill-rule="nonzero" x="3.273" y="14.141" width="2.257" height="2.102"></rect>
                <rect id="Rectangle" fill="#77D236" fill-rule="nonzero" x="19.992" y="6.524" width="2.256" height="2.104"></rect>
            </g>
            <text id="Tech@Park" font-family="Roboto-Black, Roboto" font-size="12" font-weight="700" letter-spacing="0.184615403">
                <tspan x="0.391886935" y="55" fill="#FFFFFF">Tech</tspan>
                <tspan x="27.7143329" y="55" fill="#77D236">@</tspan>
                <tspan x="38.6450421" y="55" fill="#FFFFFF">Park</tspan>
            </text>
        </g>
    </g>
</svg>