<?xml version="1.0" encoding="utf-8"?>
<!-- Generator: Adobe Illustrator 14.0.0, SVG Export Plug-In . SVG Version: 6.00 Build 43363)  -->
<!DOCTYPE svg PUBLIC "-//W3C//DTD SVG 1.1//EN" "http://www.w3.org/Graphics/SVG/1.1/DTD/svg11.dtd">
<svg version="1.1" id="Layer_1" xmlns="http://www.w3.org/2000/svg" xmlns:xlink="http://www.w3.org/1999/xlink" x="0px" y="0px"
	 width="61.667px" height="44px" viewBox="0 0 61.667 44" enable-background="new 0 0 61.667 44" xml:space="preserve">
<g>
	<g>
		<path fill="#6B6B6B" d="M53.236,31.81c0,0.622-0.551,1.125-1.231,1.125H9.635c-0.68,0-1.231-0.504-1.231-1.125V4.501
			c0-0.622,0.551-1.126,1.231-1.126h42.371c0.68,0,1.231,0.504,1.231,1.126V31.81z"/>
		<path fill="#6B6B6B" d="M52.475,34.585H8.376L0.765,40.36v2.887h60.11V40.36L52.475,34.585z M20.714,40.36l2.362-2.45h15.487
			l1.313,2.45H20.714z"/>
	</g>
	<g>
		<g>
			<line fill="none" stroke="#77D236" stroke-width="2" x1="32.568" y1="12.562" x2="32.571" y2="16.705"/>
			<line fill="none" stroke="#77D236" stroke-width="2" x1="28.863" y1="12.562" x2="28.863" y2="20.807"/>
			<line fill="none" stroke="#77D236" stroke-width="2" x1="28.863" y1="23.849" x2="28.863" y2="20.807"/>
			<polyline fill="none" stroke="#77D236" stroke-width="2" points="28.863,23.849 28.863,29.711 26.325,32.551 34.53,32.551 
				32.581,30.193 32.577,24.244 			"/>
			<line fill="none" stroke="#77D236" stroke-width="2" x1="32.571" y1="16.705" x2="32.577" y2="24.244"/>
			<line fill="none" stroke="#77D236" stroke-width="2" x1="32.577" y1="24.244" x2="32.577" y2="24.244"/>
			<path fill="none" stroke="#77D236" stroke-width="2" d="M32.577,24.244c1.944,0.103,3.133-2.103,3.133-2.103
				c2.667,1.23,5.433-0.162,7.078-1.897c1.846-1.949,0.307-6.103,0.307-6.103c0.667-0.461,1.487-4-0.923-6.513
				c-2.41-2.513-6.257-1.282-6.257-1.282s-0.872-4.358-5.231-4.103c-4.359,0.256-4.923,3.794-4.923,3.794s-2.359-2.564-5.949,0.718
				s-1.129,7.128-1.129,7.128s-2.307,3.692,0.77,6.872s6.77,0.923,6.77,0.923c0.379,1.096,2.055,1.913,2.641,2.17"/>
			<path fill="none" stroke="#77D236" stroke-width="2" d="M29.068,23.936c0,0-0.078-0.031-0.205-0.086"/>
			<line fill="none" stroke="#77D236" stroke-width="2" x1="32.571" y1="16.705" x2="32.571" y2="16.705"/>
			<line fill="none" stroke="#77D236" stroke-width="2" x1="36.222" y1="11.833" x2="32.571" y2="16.705"/>
			<line fill="none" stroke="#77D236" stroke-width="2" x1="28.863" y1="20.807" x2="25.401" y2="17.269"/>
			<circle fill="none" stroke="#77D236" stroke-width="2" cx="23.145" cy="11.576" r="2"/>
			<circle fill="none" stroke="#77D236" stroke-width="2" cx="30.427" cy="7.884" r="2"/>
			<circle fill="none" stroke="#77D236" stroke-width="2" cx="37.906" cy="17.269" r="2"/>
		</g>
		<rect x="20.273" y="16.141" fill="#77D236" width="2.257" height="2.102"/>
		<rect x="36.992" y="8.524" fill="#77D236" width="2.256" height="2.104"/>
	</g>
</g>
</svg>
